# Blender v2.79 (sub 0) OBJ File: 'prop_oven_01.blend'
# www.blender.org
mtllib prop_oven_01.mtl
o Cylinder
v 0.625000 2.500000 -1.125000
v 0.625000 2.550000 -1.125000
v 0.918893 2.500000 -1.029508
v 0.918893 2.550000 -1.029508
v 1.100528 2.500000 -0.779508
v 1.100528 2.550000 -0.779508
v 1.100528 2.500000 -0.470491
v 1.100528 2.550000 -0.470491
v 0.918893 2.500000 -0.220491
v 0.918893 2.550000 -0.220491
v 0.625000 2.500000 -0.125000
v 0.625000 2.550000 -0.125000
v 0.331107 2.500000 -0.220492
v 0.331107 2.550000 -0.220492
v 0.149472 2.500000 -0.470491
v 0.149472 2.550000 -0.470491
v 0.149472 2.500000 -0.779509
v 0.149472 2.550000 -0.779509
v 0.331108 2.500000 -1.029509
v 0.331108 2.550000 -1.029509
v -0.375000 2.500000 -0.975000
v -0.375000 2.525000 -0.975000
v -0.169275 2.500000 -0.908156
v -0.169275 2.525000 -0.908156
v -0.042130 2.500000 -0.733156
v -0.042130 2.525000 -0.733156
v -0.042130 2.500000 -0.516844
v -0.042130 2.525000 -0.516844
v -0.169275 2.500000 -0.341844
v -0.169275 2.525000 -0.341844
v -0.375000 2.500000 -0.275000
v -0.375000 2.525000 -0.275000
v -0.580725 2.500000 -0.341844
v -0.580725 2.525000 -0.341844
v -0.707870 2.500000 -0.516844
v -0.707870 2.525000 -0.516844
v -0.707870 2.500000 -0.733156
v -0.707870 2.525000 -0.733156
v -0.580725 2.500000 -0.908156
v -0.580725 2.525000 -0.908156
v -1.250000 0.000000 1.250000
v -1.250000 2.850000 1.250000
v -1.250000 0.000000 -1.250000
v -1.250000 2.850000 -1.250000
v 1.400000 0.250000 1.000000
v 1.401317 2.250000 1.000000
v 1.400000 0.250000 -1.000000
v 1.401317 2.250000 -1.000000
v 1.250000 2.500000 -1.250000
v 1.250000 0.000000 -1.250000
v 1.250000 0.000000 1.250000
v 1.250000 2.500000 1.250000
v 1.401317 1.600000 -1.000000
v 1.401317 1.600000 1.000000
v 1.250000 2.350000 -1.100000
v 1.250000 2.350000 1.100000
v 1.400000 1.400000 -1.000000
v 1.400000 1.400000 1.000000
v 1.250000 1.500000 -1.100000
v 1.250000 0.150000 -1.100000
v 1.250000 0.150000 1.100000
v 1.250000 1.500000 1.100000
v -1.100000 2.850000 -1.250000
v -1.100000 2.850000 1.250000
v -1.000000 2.500000 1.250000
v -1.000000 2.500000 -1.250000
v -0.375000 2.500000 0.125000
v -0.375000 2.550000 0.125000
v -0.081107 2.500000 0.220492
v -0.081107 2.550000 0.220492
v 0.100528 2.500000 0.470492
v 0.100528 2.550000 0.470492
v 0.100528 2.500000 0.779508
v 0.100528 2.550000 0.779508
v -0.081107 2.500000 1.029509
v -0.081107 2.550000 1.029509
v -0.375000 2.500000 1.125000
v -0.375000 2.550000 1.125000
v -0.668893 2.500000 1.029508
v -0.668893 2.550000 1.029508
v -0.850528 2.500000 0.779509
v -0.850528 2.550000 0.779509
v -0.850528 2.500000 0.470491
v -0.850528 2.550000 0.470491
v -0.668893 2.500000 0.220491
v -0.668893 2.550000 0.220491
v 0.625000 2.500000 0.275000
v 0.625000 2.525000 0.275000
v 0.830725 2.500000 0.341844
v 0.830725 2.525000 0.341844
v 0.957870 2.500000 0.516844
v 0.957870 2.525000 0.516844
v 0.957870 2.500000 0.733156
v 0.957870 2.525000 0.733156
v 0.830725 2.500000 0.908156
v 0.830725 2.525000 0.908156
v 0.625000 2.500000 0.975000
v 0.625000 2.525000 0.975000
v 0.419275 2.500000 0.908156
v 0.419275 2.525000 0.908156
v 0.292130 2.500000 0.733156
v 0.292130 2.525000 0.733156
v 0.292130 2.500000 0.516844
v 0.292130 2.525000 0.516844
v 0.419275 2.500000 0.341844
v 0.419275 2.525000 0.341844
v 1.400000 2.025000 0.875000
v 1.400000 2.175000 0.875000
v 1.400000 2.025000 -0.875000
v 1.400000 2.175000 -0.875000
v 1.500000 2.025000 0.775000
v 1.500000 2.175000 0.775000
v 1.500000 2.025000 -0.775000
v 1.500000 2.175000 -0.775000
v 1.400000 1.175000 0.875000
v 1.400000 1.325000 0.875000
v 1.400000 1.175000 -0.875000
v 1.400000 1.325000 -0.875000
v 1.500000 1.175000 0.775000
v 1.500000 1.325000 0.775000
v 1.500000 1.175000 -0.775000
v 1.500000 1.325000 -0.775000
vt 0.170000 0.729999
vt 0.180000 0.729999
vt 0.180000 0.739999
vt 0.170000 0.739999
vt 0.170000 0.729999
vt 0.180000 0.729999
vt 0.180000 0.739999
vt 0.170000 0.739999
vt 0.170000 0.729999
vt 0.180000 0.729999
vt 0.180000 0.739999
vt 0.170000 0.739999
vt 0.170000 0.729999
vt 0.180000 0.729999
vt 0.180000 0.739999
vt 0.170000 0.739999
vt 0.170000 0.729999
vt 0.180000 0.729999
vt 0.180000 0.739999
vt 0.170000 0.739999
vt 0.170000 0.729999
vt 0.180000 0.729999
vt 0.180000 0.739999
vt 0.170000 0.739999
vt 0.170000 0.729999
vt 0.180000 0.729999
vt 0.180000 0.739999
vt 0.170000 0.739999
vt 0.170000 0.729999
vt 0.180000 0.729999
vt 0.180000 0.739999
vt 0.170000 0.739999
vt 0.175000 0.739999
vt 0.177939 0.739045
vt 0.179755 0.736545
vt 0.179755 0.733454
vt 0.177939 0.730954
vt 0.175000 0.729999
vt 0.172061 0.730954
vt 0.170245 0.733454
vt 0.170245 0.736545
vt 0.172061 0.739045
vt 0.170000 0.729999
vt 0.180000 0.729999
vt 0.180000 0.739999
vt 0.170000 0.739999
vt 0.170000 0.729999
vt 0.180000 0.729999
vt 0.180000 0.739999
vt 0.170000 0.739999
vt 0.170000 0.729999
vt 0.180000 0.729999
vt 0.180000 0.739999
vt 0.170000 0.739999
vt 0.170000 0.729999
vt 0.180000 0.729999
vt 0.180000 0.739999
vt 0.170000 0.739999
vt 0.170000 0.729999
vt 0.180000 0.729999
vt 0.180000 0.739999
vt 0.170000 0.739999
vt 0.170000 0.729999
vt 0.180000 0.729999
vt 0.180000 0.739999
vt 0.170000 0.739999
vt 0.170000 0.729999
vt 0.180000 0.729999
vt 0.180000 0.739999
vt 0.170000 0.739999
vt 0.170000 0.729999
vt 0.180000 0.729999
vt 0.180000 0.739999
vt 0.170000 0.739999
vt 0.170000 0.729999
vt 0.180000 0.729999
vt 0.180000 0.739999
vt 0.170000 0.739999
vt 0.170000 0.729999
vt 0.180000 0.729999
vt 0.180000 0.739999
vt 0.170000 0.739999
vt 0.175000 0.739999
vt 0.177939 0.739045
vt 0.179755 0.736545
vt 0.179755 0.733454
vt 0.177939 0.730954
vt 0.175000 0.729999
vt 0.172061 0.730954
vt 0.170245 0.733454
vt 0.170245 0.736545
vt 0.172061 0.739045
vt 0.170000 0.729999
vt 0.180000 0.729999
vt 0.180000 0.739999
vt 0.170000 0.739999
vt 0.170000 0.729999
vt 0.180000 0.729999
vt 0.180000 0.739999
vt 0.170000 0.739999
vt 0.015625 0.021000
vt 0.019955 0.018500
vt 0.019955 0.013500
vt 0.015625 0.011000
vt 0.011295 0.013500
vt 0.011295 0.018500
vt 0.900000 0.087719
vt 0.900000 0.491228
vt 0.100000 0.491228
vt 0.100000 0.087719
vt 0.015625 0.021000
vt 0.019955 0.018500
vt 0.019955 0.013500
vt 0.015625 0.011000
vt 0.011295 0.013500
vt 0.011295 0.018500
vt 0.010625 0.011000
vt 0.020625 0.011000
vt 0.020625 0.021000
vt 0.010625 0.021000
vt 0.940000 0.824561
vt 0.940000 0.526316
vt 0.940000 0.052632
vt 1.000000 0.000000
vt 1.000000 0.877193
vt 0.060000 0.052632
vt 0.000000 0.000000
vt 0.060000 0.824561
vt 0.000000 0.877193
vt 0.060000 0.526316
vt 0.100000 0.561404
vt 0.900000 0.561404
vt 0.900000 0.789474
vt 0.100000 0.789474
vt 0.010625 0.011000
vt 0.020625 0.011000
vt 0.020625 0.021000
vt 0.010625 0.021000
vt 0.000000 0.877193
vt 1.000000 0.877193
vt 1.000000 1.000000
vt 0.000000 1.000000
vt 0.170000 0.729999
vt 0.180000 0.729999
vt 0.180000 0.739999
vt 0.170000 0.739999
vt 0.170000 0.729999
vt 0.180000 0.729999
vt 0.180000 0.739999
vt 0.170000 0.739999
vt 0.170000 0.729999
vt 0.180000 0.729999
vt 0.180000 0.739999
vt 0.170000 0.739999
vt 0.170000 0.729999
vt 0.180000 0.729999
vt 0.180000 0.739999
vt 0.170000 0.739999
vt 0.170000 0.729999
vt 0.180000 0.729999
vt 0.180000 0.739999
vt 0.170000 0.739999
vt 0.170000 0.729999
vt 0.180000 0.729999
vt 0.180000 0.739999
vt 0.170000 0.739999
vt 0.170000 0.729999
vt 0.180000 0.729999
vt 0.180000 0.739999
vt 0.170000 0.739999
vt 0.170000 0.729999
vt 0.180000 0.729999
vt 0.180000 0.739999
vt 0.170000 0.739999
vt 0.175000 0.739999
vt 0.177939 0.739045
vt 0.179755 0.736545
vt 0.179755 0.733454
vt 0.177939 0.730954
vt 0.175000 0.729999
vt 0.172061 0.730954
vt 0.170245 0.733454
vt 0.170245 0.736545
vt 0.172061 0.739045
vt 0.170000 0.729999
vt 0.180000 0.729999
vt 0.180000 0.739999
vt 0.170000 0.739999
vt 0.170000 0.729999
vt 0.180000 0.729999
vt 0.180000 0.739999
vt 0.170000 0.739999
vt 0.170000 0.729999
vt 0.180000 0.729999
vt 0.180000 0.739999
vt 0.170000 0.739999
vt 0.170000 0.729999
vt 0.180000 0.729999
vt 0.180000 0.739999
vt 0.170000 0.739999
vt 0.170000 0.729999
vt 0.180000 0.729999
vt 0.180000 0.739999
vt 0.170000 0.739999
vt 0.170000 0.729999
vt 0.180000 0.729999
vt 0.180000 0.739999
vt 0.170000 0.739999
vt 0.170000 0.729999
vt 0.180000 0.729999
vt 0.180000 0.739999
vt 0.170000 0.739999
vt 0.170000 0.729999
vt 0.180000 0.729999
vt 0.180000 0.739999
vt 0.170000 0.739999
vt 0.170000 0.729999
vt 0.180000 0.729999
vt 0.180000 0.739999
vt 0.170000 0.739999
vt 0.170000 0.729999
vt 0.180000 0.729999
vt 0.180000 0.739999
vt 0.170000 0.739999
vt 0.175000 0.739999
vt 0.177939 0.739045
vt 0.179755 0.736545
vt 0.179755 0.733454
vt 0.177939 0.730954
vt 0.175000 0.729999
vt 0.172061 0.730954
vt 0.170245 0.733454
vt 0.170245 0.736545
vt 0.172061 0.739045
vt 0.170000 0.729999
vt 0.180000 0.729999
vt 0.180000 0.739999
vt 0.170000 0.739999
vt 0.170000 0.729999
vt 0.180000 0.729999
vt 0.180000 0.739999
vt 0.170000 0.739999
vt 0.850000 0.710526
vt 0.850000 0.763158
vt 0.810000 0.763158
vt 0.810000 0.710526
vt 0.190000 0.763158
vt 0.190000 0.710526
vt 0.150000 0.763158
vt 0.150000 0.710526
vt 0.170000 0.729999
vt 0.180000 0.729999
vt 0.180000 0.739999
vt 0.170000 0.739999
vt 0.170000 0.729999
vt 0.180000 0.729999
vt 0.180000 0.739999
vt 0.170000 0.739999
vt 0.850000 0.412281
vt 0.850000 0.464912
vt 0.810000 0.464912
vt 0.810000 0.412281
vt 0.190000 0.464912
vt 0.190000 0.412281
vt 0.150000 0.464912
vt 0.150000 0.412281
vt 0.170000 0.729999
vt 0.180000 0.729999
vt 0.180000 0.739999
vt 0.170000 0.739999
vt 0.170000 0.729999
vt 0.180000 0.729999
vt 0.180000 0.739999
vt 0.170000 0.739999
vn 0.3090 0.0000 -0.9511
vn 0.8090 0.0000 -0.5878
vn 1.0000 0.0000 0.0000
vn 0.8090 0.0000 0.5878
vn 0.3090 0.0000 0.9511
vn -0.3090 0.0000 0.9511
vn -0.8090 0.0000 0.5878
vn -1.0000 0.0000 0.0000
vn 0.0000 1.0000 0.0000
vn -0.8090 0.0000 -0.5878
vn -0.3090 0.0000 -0.9511
vn -0.0000 0.0000 -1.0000
vn 0.0000 0.0000 1.0000
vn 0.5513 0.8343 0.0000
vn 0.5513 0.0000 -0.8343
vn 0.5513 0.0000 0.8343
vn 0.5513 -0.8343 0.0000
vn 0.5547 0.0000 -0.8321
vn 0.5547 -0.8321 0.0000
vn 0.5547 0.0000 0.8321
vn 0.5547 0.8321 0.0000
vn 0.9615 0.2747 0.0000
vn 0.7071 0.0000 -0.7071
vn 0.7071 0.0000 0.7071
vn 0.0000 -1.0000 0.0000
usemtl Material
s off
f 1/1/1 2/2/1 4/3/1 3/4/1
f 3/5/2 4/6/2 6/7/2 5/8/2
f 5/9/3 6/10/3 8/11/3 7/12/3
f 7/13/4 8/14/4 10/15/4 9/16/4
f 9/17/5 10/18/5 12/19/5 11/20/5
f 11/21/6 12/22/6 14/23/6 13/24/6
f 13/25/7 14/26/7 16/27/7 15/28/7
f 15/29/8 16/30/8 18/31/8 17/32/8
f 4/33/9 2/34/9 20/35/9 18/36/9 16/37/9 14/38/9 12/39/9 10/40/9 8/41/9 6/42/9
f 17/43/10 18/44/10 20/45/10 19/46/10
f 19/47/11 20/48/11 2/49/11 1/50/11
f 21/51/1 22/52/1 24/53/1 23/54/1
f 23/55/2 24/56/2 26/57/2 25/58/2
f 25/59/3 26/60/3 28/61/3 27/62/3
f 27/63/4 28/64/4 30/65/4 29/66/4
f 29/67/5 30/68/5 32/69/5 31/70/5
f 31/71/6 32/72/6 34/73/6 33/74/6
f 33/75/7 34/76/7 36/77/7 35/78/7
f 35/79/8 36/80/8 38/81/8 37/82/8
f 24/83/9 22/84/9 40/85/9 38/86/9 36/87/9 34/88/9 32/89/9 30/90/9 28/91/9 26/92/9
f 37/93/10 38/94/10 40/95/10 39/96/10
f 39/97/11 40/98/11 22/99/11 21/100/11
f 43/101/12 44/102/12 63/103/12 66/104/12 49/105/12 50/106/12
f 47/107/3 57/108/3 58/109/3 45/110/3
f 51/111/13 52/112/13 65/113/13 64/114/13 42/115/13 41/116/13
f 49/117/9 66/118/9 65/119/9 52/120/9
f 55/121/3 59/122/3 60/123/3 50/124/3 49/125/3
f 60/123/3 61/126/3 51/127/3 50/124/3
f 56/128/3 55/121/3 49/125/3 52/129/3
f 61/126/3 62/130/3 56/128/3 52/129/3 51/127/3
f 54/131/3 53/132/3 48/133/3 46/134/3
f 46/134/14 48/133/14 55/121/14 56/128/14
f 48/133/15 53/132/15 59/122/15 55/121/15
f 54/131/16 46/134/16 56/128/16 62/130/16
f 53/132/17 54/131/17 62/130/17 59/122/17
f 57/108/18 47/107/18 60/123/18 59/122/18
f 47/107/19 45/110/19 61/126/19 60/123/19
f 45/110/20 58/109/20 62/130/20 61/126/20
f 58/109/21 57/108/21 59/122/21 62/130/21
f 64/135/9 63/136/9 44/137/9 42/138/9
f 65/139/22 66/140/22 63/141/22 64/142/22
f 67/143/1 68/144/1 70/145/1 69/146/1
f 69/147/2 70/148/2 72/149/2 71/150/2
f 71/151/3 72/152/3 74/153/3 73/154/3
f 73/155/4 74/156/4 76/157/4 75/158/4
f 75/159/5 76/160/5 78/161/5 77/162/5
f 77/163/6 78/164/6 80/165/6 79/166/6
f 79/167/7 80/168/7 82/169/7 81/170/7
f 81/171/8 82/172/8 84/173/8 83/174/8
f 70/175/9 68/176/9 86/177/9 84/178/9 82/179/9 80/180/9 78/181/9 76/182/9 74/183/9 72/184/9
f 83/185/10 84/186/10 86/187/10 85/188/10
f 85/189/11 86/190/11 68/191/11 67/192/11
f 87/193/1 88/194/1 90/195/1 89/196/1
f 89/197/2 90/198/2 92/199/2 91/200/2
f 91/201/3 92/202/3 94/203/3 93/204/3
f 93/205/4 94/206/4 96/207/4 95/208/4
f 95/209/5 96/210/5 98/211/5 97/212/5
f 97/213/6 98/214/6 100/215/6 99/216/6
f 99/217/7 100/218/7 102/219/7 101/220/7
f 101/221/8 102/222/8 104/223/8 103/224/8
f 90/225/9 88/226/9 106/227/9 104/228/9 102/229/9 100/230/9 98/231/9 96/232/9 94/233/9 92/234/9
f 103/235/10 104/236/10 106/237/10 105/238/10
f 105/239/11 106/240/11 88/241/11 87/242/11
f 109/243/23 110/244/23 114/245/23 113/246/23
f 113/246/3 114/245/3 112/247/3 111/248/3
f 111/248/24 112/247/24 108/249/24 107/250/24
f 109/251/25 113/252/25 111/253/25 107/254/25
f 114/255/9 110/256/9 108/257/9 112/258/9
f 117/259/23 118/260/23 122/261/23 121/262/23
f 121/262/3 122/261/3 120/263/3 119/264/3
f 119/264/24 120/263/24 116/265/24 115/266/24
f 117/267/25 121/268/25 119/269/25 115/270/25
f 122/271/9 118/272/9 116/273/9 120/274/9
