# Blender v2.79 (sub 0) OBJ File: 'prop_barrel_01.blend'
# www.blender.org
mtllib prop_barrel_01.mtl
o Cylinder
v 0.000000 -1.500000 -1.000000
v 0.000000 1.500000 -1.000000
v 0.382683 -1.500000 -0.923880
v 0.382683 1.500000 -0.923880
v 0.707107 -1.500000 -0.707107
v 0.707107 1.500000 -0.707107
v 0.923880 -1.500000 -0.382683
v 0.923880 1.500000 -0.382683
v 1.000000 -1.500000 0.000000
v 1.000000 1.500000 0.000000
v 0.923880 -1.500000 0.382684
v 0.923880 1.500000 0.382684
v 0.707107 -1.500000 0.707107
v 0.707107 1.500000 0.707107
v 0.382683 -1.500000 0.923880
v 0.382683 1.500000 0.923880
v 0.000000 -1.500000 1.000000
v 0.000000 1.500000 1.000000
v -0.382683 -1.500000 0.923880
v -0.382683 1.500000 0.923880
v -0.707107 -1.500000 0.707107
v -0.707107 1.500000 0.707107
v -0.923880 -1.500000 0.382684
v -0.923880 1.500000 0.382684
v -1.000000 -1.500000 -0.000000
v -1.000000 1.500000 -0.000000
v -0.923879 -1.500000 -0.382684
v -0.923879 1.500000 -0.382684
v -0.707107 -1.500000 -0.707107
v -0.707107 1.500000 -0.707107
v -0.382683 -1.500000 -0.923880
v -0.382683 1.500000 -0.923880
v -0.000000 -0.500000 -1.050000
v -0.000000 0.500000 -1.050000
v 0.401818 0.500000 -0.970073
v 0.401818 -0.500000 -0.970073
v 0.742462 0.500000 -0.742462
v 0.742462 -0.500000 -0.742462
v 0.970073 0.500000 -0.401818
v 0.970073 -0.500000 -0.401818
v 1.050000 0.500000 0.000000
v 1.050000 -0.500000 0.000000
v 0.970073 0.500000 0.401818
v 0.970073 -0.500000 0.401818
v 0.742462 0.500000 0.742462
v 0.742462 -0.500000 0.742462
v 0.401818 0.500000 0.970073
v 0.401818 -0.500000 0.970073
v 0.000000 0.500000 1.050000
v 0.000000 -0.500000 1.050000
v -0.401817 0.500000 0.970074
v -0.401817 -0.500000 0.970074
v -0.742462 0.500000 0.742462
v -0.742462 -0.500000 0.742462
v -0.970073 0.500000 0.401818
v -0.970073 -0.500000 0.401818
v -1.050000 0.500000 -0.000000
v -1.050000 -0.500000 -0.000000
v -0.970073 0.500000 -0.401818
v -0.970073 -0.500000 -0.401818
v -0.742462 0.500000 -0.742462
v -0.742462 -0.500000 -0.742462
v -0.401817 0.500000 -0.970074
v -0.401817 -0.500000 -0.970074
v -0.382683 0.550000 -0.923880
v -0.382683 0.450000 -0.923880
v 0.000000 0.550000 -1.000000
v 0.000000 0.450000 -1.000000
v -0.707107 0.550000 -0.707107
v -0.707107 0.450000 -0.707107
v -0.923879 0.550000 -0.382684
v -0.923879 0.450000 -0.382684
v -1.000000 0.550000 -0.000000
v -1.000000 0.450000 -0.000000
v -0.923880 0.550000 0.382684
v -0.923880 0.450000 0.382684
v -0.707107 0.550000 0.707107
v -0.707107 0.450000 0.707107
v -0.382683 0.550000 0.923880
v -0.382683 0.450000 0.923880
v 0.000000 0.550000 1.000000
v 0.000000 0.450000 1.000000
v 0.382683 0.550000 0.923880
v 0.382683 0.450000 0.923880
v 0.707107 0.550000 0.707107
v 0.707107 0.450000 0.707107
v 0.923880 0.550000 0.382684
v 0.923880 0.450000 0.382684
v 1.000000 0.550000 0.000000
v 1.000000 0.450000 0.000000
v 0.923880 0.550000 -0.382683
v 0.923880 0.450000 -0.382683
v 0.707107 0.550000 -0.707107
v 0.707107 0.450000 -0.707107
v 0.382683 0.550000 -0.923880
v 0.382683 0.450000 -0.923880
v -0.382683 -0.550000 -0.923880
v -0.382683 -0.450000 -0.923880
v 0.000000 -0.550000 -1.000000
v 0.000000 -0.450000 -1.000000
v -0.707107 -0.550000 -0.707107
v -0.707107 -0.450000 -0.707107
v -0.923879 -0.550000 -0.382684
v -0.923879 -0.450000 -0.382684
v -1.000000 -0.550000 -0.000000
v -1.000000 -0.450000 -0.000000
v -0.923880 -0.550000 0.382684
v -0.923880 -0.450000 0.382684
v -0.707107 -0.550000 0.707107
v -0.707107 -0.450000 0.707107
v -0.382683 -0.550000 0.923880
v -0.382683 -0.450000 0.923880
v 0.000000 -0.550000 1.000000
v 0.000000 -0.450000 1.000000
v 0.382683 -0.550000 0.923880
v 0.382683 -0.450000 0.923880
v 0.707107 -0.550000 0.707107
v 0.707107 -0.450000 0.707107
v 0.923880 -0.550000 0.382684
v 0.923880 -0.450000 0.382684
v 1.000000 -0.550000 0.000000
v 1.000000 -0.450000 0.000000
v 0.923880 -0.550000 -0.382683
v 0.923880 -0.450000 -0.382683
v 0.707107 -0.550000 -0.707107
v 0.707107 -0.450000 -0.707107
v 0.382683 -0.550000 -0.923880
v 0.382683 -0.450000 -0.923880
vt 0.341844 0.471731
vt 0.250000 0.490000
vt 0.158156 0.471731
vt 0.080294 0.419706
vt 0.028269 0.341844
vt 0.010000 0.250000
vt 0.028269 0.158156
vt 0.080294 0.080294
vt 0.158156 0.028269
vt 0.250000 0.010000
vt 0.341844 0.028269
vt 0.419706 0.080294
vt 0.471731 0.158156
vt 0.490000 0.250000
vt 0.471731 0.341844
vt 0.419706 0.419706
vt 0.750000 0.490000
vt 0.841844 0.471731
vt 0.919706 0.419706
vt 0.971731 0.341844
vt 0.990000 0.250000
vt 0.971731 0.158156
vt 0.919706 0.080294
vt 0.841844 0.028269
vt 0.750000 0.010000
vt 0.658156 0.028269
vt 0.580294 0.080294
vt 0.528269 0.158156
vt 0.510000 0.250000
vt 0.528269 0.341844
vt 0.580294 0.419706
vt 0.658156 0.471731
vt 1.000000 0.833333
vt 1.000000 0.833333
vt 0.937500 0.833333
vt 0.937500 0.833333
vt 0.875000 0.833333
vt 0.875000 0.833333
vt 0.812500 0.833333
vt 0.812500 0.833333
vt 0.750000 0.833333
vt 0.750000 0.833333
vt 0.687500 0.833333
vt 0.687500 0.833333
vt 0.625000 0.833333
vt 0.625000 0.833333
vt 0.562500 0.833333
vt 0.562500 0.833333
vt 0.500000 0.833333
vt 0.500000 0.833333
vt 0.437500 0.833333
vt 0.437500 0.833333
vt 0.375000 0.833333
vt 0.375000 0.833333
vt 0.312500 0.833333
vt 0.312500 0.833333
vt 0.250000 0.833333
vt 0.250000 0.833333
vt 0.187500 0.833333
vt 0.187500 0.833333
vt 0.125000 0.833333
vt 0.125000 0.833333
vt 0.062500 0.833333
vt 0.062500 0.833333
vt 0.000000 0.833333
vt 0.000000 0.833333
vt 0.062500 0.666667
vt 0.062500 0.666667
vt 0.000000 0.666667
vt 0.000000 0.666667
vt 0.062500 0.833333
vt 0.000000 0.833333
vt 0.125000 0.666667
vt 0.125000 0.666667
vt 0.125000 0.833333
vt 0.187500 0.666667
vt 0.187500 0.666667
vt 0.187500 0.833333
vt 0.250000 0.666667
vt 0.250000 0.666667
vt 0.250000 0.833333
vt 0.312500 0.666667
vt 0.312500 0.666667
vt 0.312500 0.833333
vt 0.375000 0.666667
vt 0.375000 0.666667
vt 0.375000 0.833333
vt 0.437500 0.666667
vt 0.437500 0.666667
vt 0.437500 0.833333
vt 0.500000 0.666667
vt 0.500000 0.666667
vt 0.500000 0.833333
vt 0.562500 0.666667
vt 0.562500 0.666667
vt 0.562500 0.833333
vt 0.625000 0.666667
vt 0.625000 0.666667
vt 0.625000 0.833333
vt 0.687500 0.666667
vt 0.687500 0.666667
vt 0.687500 0.833333
vt 0.750000 0.666667
vt 0.750000 0.666667
vt 0.750000 0.833333
vt 0.812500 0.666667
vt 0.812500 0.666667
vt 0.812500 0.833333
vt 0.875000 0.666667
vt 0.875000 0.666667
vt 0.875000 0.833333
vt 0.937500 0.666667
vt 0.937500 0.666667
vt 0.937500 0.833333
vt 1.000000 0.666667
vt 1.000000 0.666667
vt 1.000000 0.833333
vt 0.062500 1.000000
vt 0.000000 1.000000
vt 0.125000 0.666667
vt 0.062500 0.666667
vt 1.000000 1.000000
vt 0.937500 1.000000
vt 0.000000 0.666667
vt 0.125000 1.000000
vt 0.187500 0.666667
vt 0.187500 1.000000
vt 0.250000 0.666667
vt 0.250000 1.000000
vt 0.312500 0.666667
vt 0.312500 1.000000
vt 0.375000 0.666667
vt 0.375000 1.000000
vt 0.437500 0.666667
vt 0.437500 1.000000
vt 0.500000 0.666667
vt 0.500000 1.000000
vt 0.562500 0.666667
vt 0.562500 1.000000
vt 0.625000 0.666667
vt 0.625000 1.000000
vt 0.687500 0.666667
vt 0.687500 1.000000
vt 0.750000 0.666667
vt 0.750000 1.000000
vt 0.812500 0.666667
vt 0.812500 1.000000
vt 0.875000 0.666667
vt 0.875000 1.000000
vt 0.937500 0.666667
vt 1.000000 0.666667
vt 0.125000 0.500000
vt 0.062500 0.500000
vt 0.000000 0.500000
vt 0.187500 0.500000
vt 0.250000 0.500000
vt 0.312500 0.500000
vt 0.375000 0.500000
vt 0.437500 0.500000
vt 0.500000 0.500000
vt 0.562500 0.500000
vt 0.625000 0.500000
vt 0.687500 0.500000
vt 0.750000 0.500000
vt 0.812500 0.500000
vt 0.875000 0.500000
vt 0.937500 0.500000
vt 1.000000 0.500000
vn 0.0000 1.0000 -0.0000
vn 0.0000 -1.0000 -0.0000
vn 0.0000 0.0000 -1.0000
vn 0.0000 0.4006 -0.9163
vn 0.3506 0.4006 -0.8465
vn 0.3827 0.0000 -0.9239
vn 0.6479 0.4006 -0.6479
vn 0.7071 0.0000 -0.7071
vn 0.8465 0.4006 -0.3506
vn 0.9239 0.0000 -0.3827
vn 0.9163 0.4006 0.0000
vn 1.0000 0.0000 0.0000
vn 0.8465 0.4006 0.3506
vn 0.9239 0.0000 0.3827
vn 0.6479 0.4006 0.6479
vn 0.7071 0.0000 0.7071
vn 0.3506 0.4006 0.8465
vn 0.3827 0.0000 0.9239
vn 0.0000 0.4006 0.9163
vn 0.0000 0.0000 1.0000
vn -0.3506 0.4006 0.8465
vn -0.3827 0.0000 0.9239
vn -0.6479 0.4006 0.6479
vn -0.7071 0.0000 0.7071
vn -0.8465 0.4006 0.3506
vn -0.9239 0.0000 0.3827
vn -0.9163 0.4006 0.0000
vn -1.0000 0.0000 0.0000
vn -0.8465 0.4006 -0.3506
vn -0.9239 0.0000 -0.3827
vn -0.6479 0.4006 -0.6479
vn -0.7071 0.0000 -0.7071
vn -0.3506 0.4006 -0.8465
vn -0.3827 0.0000 -0.9239
vn -0.3506 -0.4006 -0.8465
vn 0.0000 -0.4006 -0.9163
vn -0.6479 -0.4006 -0.6479
vn -0.8465 -0.4006 -0.3506
vn -0.9163 -0.4006 0.0000
vn -0.8465 -0.4006 0.3506
vn -0.6479 -0.4006 0.6479
vn -0.3506 -0.4006 0.8465
vn 0.0000 -0.4006 0.9163
vn 0.3506 -0.4006 0.8465
vn 0.6479 -0.4006 0.6479
vn 0.8465 -0.4006 0.3506
vn 0.9163 -0.4006 0.0000
vn 0.8465 -0.4006 -0.3506
vn 0.6479 -0.4006 -0.6479
vn 0.3506 -0.4006 -0.8465
vn -0.2855 0.6657 -0.6894
vn 0.0000 0.6657 -0.7462
vn 0.2855 0.6657 -0.6894
vn -0.5276 0.6657 -0.5276
vn -0.6894 0.6657 -0.2855
vn -0.7462 0.6657 0.0000
vn -0.6894 0.6657 0.2855
vn -0.5276 0.6657 0.5276
vn -0.2855 0.6657 0.6894
vn 0.0000 0.6657 0.7462
vn 0.2855 0.6657 0.6894
vn 0.5276 0.6657 0.5276
vn 0.6894 0.6657 0.2855
vn 0.7462 0.6657 0.0000
vn 0.6894 0.6657 -0.2855
vn 0.5276 0.6657 -0.5276
vn -0.5276 -0.6657 -0.5276
vn -0.2855 -0.6657 -0.6894
vn 0.0000 -0.6657 -0.7462
vn -0.6894 -0.6657 -0.2855
vn -0.7462 -0.6657 0.0000
vn -0.6894 -0.6657 0.2855
vn -0.5276 -0.6657 0.5276
vn -0.2855 -0.6657 0.6894
vn 0.0000 -0.6657 0.7462
vn 0.2855 -0.6657 0.6894
vn 0.5276 -0.6657 0.5276
vn 0.6894 -0.6657 0.2855
vn 0.7462 -0.6657 0.0000
vn 0.6894 -0.6657 -0.2855
vn 0.5276 -0.6657 -0.5276
vn 0.2855 -0.6657 -0.6894
usemtl Material
s off
f 4/1/1 2/2/1 32/3/1 30/4/1 28/5/1 26/6/1 24/7/1 22/8/1 20/9/1 18/10/1 16/11/1 14/12/1 12/13/1 10/14/1 8/15/1 6/16/1
f 1/17/2 3/18/2 5/19/2 7/20/2 9/21/2 11/22/2 13/23/2 15/24/2 17/25/2 19/26/2 21/27/2 23/28/2 25/29/2 27/30/2 29/31/2 31/32/2
s 1
f 34/33/3 67/34/4 95/35/5 35/36/6
f 35/36/6 95/35/5 93/37/7 37/38/8
f 37/38/8 93/37/7 91/39/9 39/40/10
f 39/40/10 91/39/9 89/41/11 41/42/12
f 41/42/12 89/41/11 87/43/13 43/44/14
f 43/44/14 87/43/13 85/45/15 45/46/16
f 45/46/16 85/45/15 83/47/17 47/48/18
f 47/48/18 83/47/17 81/49/19 49/50/20
f 49/50/20 81/49/19 79/51/21 51/52/22
f 51/52/22 79/51/21 77/53/23 53/54/24
f 53/54/24 77/53/23 75/55/25 55/56/26
f 55/56/26 75/55/25 73/57/27 57/58/28
f 57/58/28 73/57/27 71/59/29 59/60/30
f 59/60/30 71/59/29 69/61/31 61/62/32
f 61/62/32 69/61/31 65/63/33 63/64/34
f 63/64/34 65/63/33 67/65/4 34/66/3
f 97/67/35 64/68/34 33/69/3 99/70/36
f 66/71/35 63/64/34 34/66/3 68/72/36
f 101/73/37 62/74/32 64/68/34 97/67/35
f 70/75/37 61/62/32 63/64/34 66/71/35
f 103/76/38 60/77/30 62/74/32 101/73/37
f 72/78/38 59/60/30 61/62/32 70/75/37
f 105/79/39 58/80/28 60/77/30 103/76/38
f 74/81/39 57/58/28 59/60/30 72/78/38
f 107/82/40 56/83/26 58/80/28 105/79/39
f 76/84/40 55/56/26 57/58/28 74/81/39
f 109/85/41 54/86/24 56/83/26 107/82/40
f 78/87/41 53/54/24 55/56/26 76/84/40
f 111/88/42 52/89/22 54/86/24 109/85/41
f 80/90/42 51/52/22 53/54/24 78/87/41
f 113/91/43 50/92/20 52/89/22 111/88/42
f 82/93/43 49/50/20 51/52/22 80/90/42
f 115/94/44 48/95/18 50/92/20 113/91/43
f 84/96/44 47/48/18 49/50/20 82/93/43
f 117/97/45 46/98/16 48/95/18 115/94/44
f 86/99/45 45/46/16 47/48/18 84/96/44
f 119/100/46 44/101/14 46/98/16 117/97/45
f 88/102/46 43/44/14 45/46/16 86/99/45
f 121/103/47 42/104/12 44/101/14 119/100/46
f 90/105/47 41/42/12 43/44/14 88/102/46
f 123/106/48 40/107/10 42/104/12 121/103/47
f 92/108/48 39/40/10 41/42/12 90/105/47
f 125/109/49 38/110/8 40/107/10 123/106/48
f 94/111/49 37/38/8 39/40/10 92/108/48
f 127/112/50 36/113/6 38/110/8 125/109/49
f 96/114/50 35/36/6 37/38/8 94/111/49
f 99/115/36 33/116/3 36/113/6 127/112/50
f 68/117/36 34/33/3 35/36/6 96/114/50
f 65/63/33 32/118/51 2/119/52 67/65/4
f 62/74/32 102/120/31 98/121/33 64/68/34
f 67/34/4 2/122/52 4/123/53 95/35/5
f 64/68/34 98/121/33 100/124/4 33/69/3
f 69/61/31 30/125/54 32/118/51 65/63/33
f 60/77/30 104/126/29 102/120/31 62/74/32
f 71/59/29 28/127/55 30/125/54 69/61/31
f 58/80/28 106/128/27 104/126/29 60/77/30
f 73/57/27 26/129/56 28/127/55 71/59/29
f 56/83/26 108/130/25 106/128/27 58/80/28
f 75/55/25 24/131/57 26/129/56 73/57/27
f 54/86/24 110/132/23 108/130/25 56/83/26
f 77/53/23 22/133/58 24/131/57 75/55/25
f 52/89/22 112/134/21 110/132/23 54/86/24
f 79/51/21 20/135/59 22/133/58 77/53/23
f 50/92/20 114/136/19 112/134/21 52/89/22
f 81/49/19 18/137/60 20/135/59 79/51/21
f 48/95/18 116/138/17 114/136/19 50/92/20
f 83/47/17 16/139/61 18/137/60 81/49/19
f 46/98/16 118/140/15 116/138/17 48/95/18
f 85/45/15 14/141/62 16/139/61 83/47/17
f 44/101/14 120/142/13 118/140/15 46/98/16
f 87/43/13 12/143/63 14/141/62 85/45/15
f 42/104/12 122/144/11 120/142/13 44/101/14
f 89/41/11 10/145/64 12/143/63 87/43/13
f 40/107/10 124/146/9 122/144/11 42/104/12
f 91/39/9 8/147/65 10/145/64 89/41/11
f 38/110/8 126/148/7 124/146/9 40/107/10
f 93/37/7 6/149/66 8/147/65 91/39/9
f 36/113/6 128/150/5 126/148/7 38/110/8
f 95/35/5 4/123/53 6/149/66 93/37/7
f 33/116/3 100/151/4 128/150/5 36/113/6
f 98/121/33 66/71/35 68/72/36 100/124/4
f 29/152/67 101/73/37 97/67/35 31/153/68
f 31/153/68 97/67/35 99/70/36 1/154/69
f 100/151/4 68/117/36 96/114/50 128/150/5
f 102/120/31 70/75/37 66/71/35 98/121/33
f 27/155/70 103/76/38 101/73/37 29/152/67
f 104/126/29 72/78/38 70/75/37 102/120/31
f 25/156/71 105/79/39 103/76/38 27/155/70
f 106/128/27 74/81/39 72/78/38 104/126/29
f 23/157/72 107/82/40 105/79/39 25/156/71
f 108/130/25 76/84/40 74/81/39 106/128/27
f 21/158/73 109/85/41 107/82/40 23/157/72
f 110/132/23 78/87/41 76/84/40 108/130/25
f 19/159/74 111/88/42 109/85/41 21/158/73
f 112/134/21 80/90/42 78/87/41 110/132/23
f 17/160/75 113/91/43 111/88/42 19/159/74
f 114/136/19 82/93/43 80/90/42 112/134/21
f 15/161/76 115/94/44 113/91/43 17/160/75
f 116/138/17 84/96/44 82/93/43 114/136/19
f 13/162/77 117/97/45 115/94/44 15/161/76
f 118/140/15 86/99/45 84/96/44 116/138/17
f 11/163/78 119/100/46 117/97/45 13/162/77
f 120/142/13 88/102/46 86/99/45 118/140/15
f 9/164/79 121/103/47 119/100/46 11/163/78
f 122/144/11 90/105/47 88/102/46 120/142/13
f 7/165/80 123/106/48 121/103/47 9/164/79
f 124/146/9 92/108/48 90/105/47 122/144/11
f 5/166/81 125/109/49 123/106/48 7/165/80
f 126/148/7 94/111/49 92/108/48 124/146/9
f 3/167/82 127/112/50 125/109/49 5/166/81
f 128/150/5 96/114/50 94/111/49 126/148/7
f 1/168/69 99/115/36 127/112/50 3/167/82
