# Blender v2.79 (sub 0) OBJ File: 'prop_extractor_01.blend'
# www.blender.org
mtllib prop_extractor_01.mtl
o Cube
v 1.250000 0.000000 -1.250000
v 1.250000 0.000000 1.250000
v -1.250000 0.000000 1.250000
v -1.250000 0.000000 -1.250000
v 0.750001 0.750000 -1.249999
v 0.749999 0.750000 0.250001
v -0.750000 0.750000 0.249999
v -0.750000 0.750000 -1.250000
v 0.750001 2.250000 -1.249999
v 0.749999 2.250000 0.250001
v -0.750000 2.250000 -1.250000
v -0.750000 2.250000 0.249999
vn 0.0000 -1.0000 0.0000
vn -1.0000 0.0000 -0.0000
vn 0.8321 0.5547 0.0000
vn -0.0000 0.8000 0.6000
vn -0.8321 0.5547 -0.0000
vn -0.0000 0.0000 1.0000
vn 1.0000 0.0000 0.0000
usemtl Material
s off
f 1//1 2//1 3//1 4//1
f 8//2 7//2 12//2 11//2
f 1//3 5//3 6//3 2//3
f 2//4 6//4 7//4 3//4
f 3//5 7//5 8//5 4//5
f 7//6 6//6 10//6 12//6
f 6//7 5//7 9//7 10//7
