# Blender v2.79 (sub 0) OBJ File: 'prop_cupboard_01.blend'
# www.blender.org
mtllib prop_cupboard_01.mtl
o Cube
v 2.000000 -1.000000 -2.000000
v 2.000000 -1.000000 0.000000
v -2.000000 -1.000000 -0.000000
v -1.999999 -1.000000 -2.000000
v 2.000001 1.000000 -2.000000
v 1.999999 1.000000 0.000001
v -2.000001 1.000000 -0.000000
v -2.000000 1.000000 -2.000000
v 0.000000 -1.000000 -1.950000
v 0.000000 1.000000 -1.950000
v -0.050000 -1.000000 -2.000000
v 0.050000 -1.000000 -2.000000
v -0.049999 1.000000 -2.000000
v 0.050001 1.000000 -2.000000
v 0.000000 -1.000000 0.000000
v -1.725000 -0.500000 -2.000000
v -1.725000 0.500000 -2.000000
v -1.725000 -0.400000 -2.150000
v -1.725000 0.400000 -2.150000
v -1.575000 -0.500000 -2.000000
v -1.575000 0.500000 -2.000000
v -1.575000 -0.400000 -2.150000
v -1.575000 0.400000 -2.150000
v 0.275000 -0.500000 -2.000000
v 0.275000 0.500000 -2.000000
v 0.275000 -0.400000 -2.150000
v 0.275000 0.400000 -2.150000
v 0.425000 -0.500000 -2.000000
v 0.425000 0.500000 -2.000000
v 0.425000 -0.400000 -2.150000
v 0.425000 0.400000 -2.150000
vn 1.0000 0.0000 0.0000
vn -1.0000 -0.0000 -0.0000
vn 0.7071 0.0000 -0.7071
vn -0.7071 0.0000 -0.7071
vn 0.0000 0.0000 -1.0000
vn 0.0000 -1.0000 0.0000
vn 0.0000 -0.8321 -0.5547
vn 0.0000 0.8321 -0.5547
usemtl Cupboard
s off
f 1//1 5//1 6//1 2//1
f 3//2 7//2 8//2 4//2
f 10//3 9//3 11//3 13//3
f 14//4 12//4 9//4 10//4
f 13//5 11//5 4//5 8//5
f 5//5 1//5 12//5 14//5
f 2//6 12//6 1//6
f 4//6 11//6 3//6
f 11//6 15//6 3//6
f 15//6 12//6 2//6
f 11//6 9//6 15//6
f 12//6 15//6 9//6
usemtl Handles
f 16//2 17//2 19//2 18//2
f 18//5 19//5 23//5 22//5
f 22//1 23//1 21//1 20//1
f 18//7 22//7 20//7 16//7
f 23//8 19//8 17//8 21//8
f 24//2 25//2 27//2 26//2
f 26//5 27//5 31//5 30//5
f 30//1 31//1 29//1 28//1
f 26//7 30//7 28//7 24//7
f 31//8 27//8 25//8 29//8
