# This file uses centimeters as units for non-parametric coordinates.

mtllib itm_paperstack.mtl
g default
v 0.885698 0.042627 2.398495
v 2.546546 0.042627 0.228778
v -2.546546 0.042627 -0.228778
v -0.885698 0.042627 -2.398495
v 3.449829 0.048600 0.605987
v 2.732090 0.048600 -2.030477
v -0.720756 0.048600 1.741368
v -1.438495 0.048600 -0.895096
v -0.133008 0.048600 2.553340
v 2.249441 0.048600 1.215423
v -2.249441 0.048600 -1.215423
v 0.133008 0.048600 -2.553340
v -1.366207 0.000000 2.161184
v 1.366207 0.000000 2.161184
v -1.366207 0.000000 -2.161184
v 1.366207 0.000000 -2.161184
vt 0.000000 0.000000
vt 1.000000 0.000000
vt 0.000000 1.000000
vt 1.000000 1.000000
vt 0.000000 0.000000
vt 1.000000 0.000000
vt 0.000000 1.000000
vt 1.000000 1.000000
vt 0.000000 0.000000
vt 1.000000 0.000000
vt 0.000000 1.000000
vt 1.000000 1.000000
vt 0.000000 0.000000
vt 1.000000 0.000000
vt 0.000000 1.000000
vt 1.000000 1.000000
vn 0.000000 1.000000 0.000000
vn 0.000000 1.000000 0.000000
vn 0.000000 1.000000 0.000000
vn 0.000000 1.000000 0.000000
vn 0.000000 1.000000 0.000000
vn 0.000000 1.000000 0.000000
vn 0.000000 1.000000 0.000000
vn 0.000000 1.000000 0.000000
vn 0.000000 1.000000 0.000000
vn 0.000000 1.000000 0.000000
vn 0.000000 1.000000 0.000000
vn 0.000000 1.000000 0.000000
vn 0.000000 1.000000 0.000000
vn 0.000000 1.000000 0.000000
vn 0.000000 1.000000 0.000000
vn 0.000000 1.000000 0.000000
s off
g itm_paperstack
usemtl initialShadingGroup
f 4/4/1 3/3/2 1/1/3 2/2/4
f 6/6/5 8/8/6 7/7/7 5/5/8
f 11/11/9 9/9/10 10/10/11 12/12/12
f 14/14/13 16/16/14 15/15/15 13/13/16
