# This file uses centimeters as units for non-parametric coordinates.

mtllib itm_wallsocket_clean.mtl
g default
v 0.739080 -0.185946 0.086189
v 0.739080 -0.214908 0.086189
v 0.863587 -0.185946 0.086189
v 0.863587 -0.214908 0.086189
v 0.863587 -0.185946 -0.114691
v 0.863587 -0.214908 -0.114691
v 0.739080 -0.185946 -0.114691
v 0.739080 -0.214908 -0.114691
v 0.635167 0.115041 0.086189
v 0.664129 0.115041 0.086189
v 0.635167 0.315921 0.086189
v 0.664129 0.315921 0.086189
v 0.635167 0.315921 -0.114691
v 0.664129 0.315921 -0.114691
v 0.635167 0.115041 -0.114691
v 0.664129 0.115041 -0.114691
v 0.450956 -0.185946 0.086189
v 0.450956 -0.214908 0.086189
v 0.575464 -0.185946 0.086189
v 0.575464 -0.214908 0.086189
v 0.575464 -0.185946 -0.114691
v 0.575464 -0.214908 -0.114691
v 0.450956 -0.185946 -0.114691
v 0.450956 -0.214908 -0.114691
v -0.670915 0.115041 0.086189
v -0.641953 0.115041 0.086189
v -0.670915 0.315921 0.086189
v -0.641953 0.315921 0.086189
v -0.670915 0.315921 -0.114691
v -0.641953 0.315921 -0.114691
v -0.670915 0.115041 -0.114691
v -0.641953 0.115041 -0.114691
v -0.855126 -0.185946 0.086189
v -0.855126 -0.214908 0.086189
v -0.730619 -0.185946 0.086189
v -0.730619 -0.214908 0.086189
v -0.730619 -0.185946 -0.114691
v -0.730619 -0.214908 -0.114691
v -0.855126 -0.185946 -0.114691
v -0.855126 -0.214908 -0.114691
v -1.146909 -0.500000 0.081184
v 1.146909 -0.500000 0.081184
v -1.146909 0.500000 0.081184
v 1.146909 0.500000 0.081184
v -1.146909 0.500000 -0.081184
v 1.146909 0.500000 -0.081184
v -1.146909 -0.500000 -0.081184
v 1.146909 -0.500000 -0.081184
v 0.000000 -0.500000 0.081184
v -0.000000 -0.500000 -0.081184
v -0.000000 0.500000 -0.081184
v 0.000000 0.500000 0.081184
v 0.114691 -0.500000 0.081184
v 0.114691 0.500000 0.081184
v 0.114691 0.500000 -0.081184
v 0.114691 -0.500000 -0.081184
v -0.184917 -0.500000 0.081184
v -0.114691 -0.500000 -0.081184
v -0.114691 0.500000 -0.081184
v -0.114691 0.500000 0.081184
v -1.146909 0.400000 0.081184
v -0.114691 0.400000 0.081184
v 0.000000 0.400000 0.081184
v 0.114691 0.400000 0.081184
v 1.146909 0.400000 0.081184
v 1.146909 0.400000 -0.081184
v 0.114691 0.400000 -0.081184
v 0.000000 0.400000 -0.081184
v -0.114691 0.400000 -0.081184
v -1.146909 0.400000 -0.081184
v -1.146909 0.130000 0.081184
v -0.114691 0.130000 0.081184
v 0.000000 0.130000 0.081184
v 0.114691 0.130000 0.081184
v 1.146909 0.130000 0.081184
v 1.146909 0.130000 -0.081184
v 0.114691 0.130000 -0.081184
v 0.000000 0.130000 -0.081184
v -0.114691 0.130000 -0.081184
v -1.146909 0.130000 -0.081184
v -0.098672 0.365396 0.081184
v -0.013380 0.365396 0.081184
v -0.098672 0.164604 0.081184
v -0.013380 0.164604 0.081184
v 0.016330 0.365396 0.081184
v 0.101622 0.365396 0.081184
v 0.016330 0.164604 0.081184
v 0.101622 0.164604 0.081184
v -0.098672 0.361916 0.151924
v -0.013380 0.361916 0.151924
v -0.098672 0.168084 0.099519
v -0.013380 0.168084 0.099519
v 0.016330 0.361916 0.151924
v 0.101622 0.361916 0.151924
v 0.016330 0.168084 0.099519
v 0.101622 0.168084 0.099519
v -0.248340 0.500000 0.081184
v -0.249246 0.400000 0.081184
v -0.225130 0.130000 0.081184
v -0.256081 0.500000 -0.081184
v -0.184917 -0.500000 0.021228
v -0.244492 0.130000 0.021228
v -0.205768 0.130000 0.021228
v -0.267800 0.400000 0.021228
v -0.230691 0.400000 0.021228
v -0.264561 0.470022 0.051206
v -0.232120 0.470022 0.051206
v -0.256081 0.440044 -0.081184
v -0.567002 -0.185946 0.086189
v -0.567002 -0.214908 0.086189
v -0.442495 -0.185946 0.086189
v -0.442495 -0.214908 0.086189
v -0.442495 -0.185946 -0.114691
v -0.442495 -0.214908 -0.114691
v -0.567002 -0.185946 -0.114691
v -0.567002 -0.214908 -0.114691
vt 0.375000 0.000000
vt 0.625000 0.000000
vt 0.375000 0.250000
vt 0.625000 0.250000
vt 0.375000 0.500000
vt 0.625000 0.500000
vt 0.375000 0.750000
vt 0.625000 0.750000
vt 0.375000 1.000000
vt 0.625000 1.000000
vt 0.875000 0.000000
vt 0.875000 0.250000
vt 0.125000 0.000000
vt 0.125000 0.250000
vt 0.375000 0.000000
vt 0.625000 0.000000
vt 0.625000 0.250000
vt 0.375000 0.250000
vt 0.625000 0.500000
vt 0.375000 0.500000
vt 0.625000 0.750000
vt 0.375000 0.750000
vt 0.625000 1.000000
vt 0.375000 1.000000
vt 0.875000 0.000000
vt 0.875000 0.250000
vt 0.125000 0.000000
vt 0.125000 0.250000
vt 0.375000 0.000000
vt 0.625000 0.000000
vt 0.625000 0.250000
vt 0.375000 0.250000
vt 0.625000 0.500000
vt 0.375000 0.500000
vt 0.625000 0.750000
vt 0.375000 0.750000
vt 0.625000 1.000000
vt 0.375000 1.000000
vt 0.875000 0.000000
vt 0.875000 0.250000
vt 0.125000 0.000000
vt 0.125000 0.250000
vt 0.375000 0.000000
vt 0.625000 0.000000
vt 0.625000 0.250000
vt 0.375000 0.250000
vt 0.625000 0.500000
vt 0.375000 0.500000
vt 0.625000 0.750000
vt 0.375000 0.750000
vt 0.625000 1.000000
vt 0.375000 1.000000
vt 0.875000 0.000000
vt 0.875000 0.250000
vt 0.125000 0.000000
vt 0.125000 0.250000
vt 0.375000 0.000000
vt 0.625000 0.000000
vt 0.625000 0.250000
vt 0.375000 0.250000
vt 0.625000 0.500000
vt 0.375000 0.500000
vt 0.625000 0.750000
vt 0.375000 0.750000
vt 0.625000 1.000000
vt 0.375000 1.000000
vt 0.875000 0.000000
vt 0.875000 0.250000
vt 0.125000 0.000000
vt 0.125000 0.250000
vt 0.500000 0.250000
vt 0.500000 0.225000
vt 0.512500 0.225000
vt 0.512500 0.250000
vt 0.500000 0.500000
vt 0.512500 0.500000
vt 0.512500 0.525000
vt 0.500000 0.525000
vt 0.500000 1.000000
vt 0.500000 0.750000
vt 0.512500 0.750000
vt 0.512500 1.000000
vt 0.625000 0.225000
vt 0.875000 0.225000
vt 0.875000 0.250000
vt 0.625000 0.250000
vt 0.125000 0.225000
vt 0.375000 0.225000
vt 0.375000 0.250000
vt 0.125000 0.250000
vt 0.487500 1.000000
vt 0.487500 0.750000
vt 0.487500 0.525000
vt 0.487500 0.500000
vt 0.487500 0.250000
vt 0.487500 0.225000
vt 0.625000 0.500000
vt 0.625000 0.525000
vt 0.625000 0.750000
vt 0.625000 1.000000
vt 0.375000 0.750000
vt 0.375000 1.000000
vt 0.375000 0.500000
vt 0.466601 0.500000
vt 0.375000 0.525000
vt 0.464110 0.250000
vt 0.473638 0.250000
vt 0.474057 0.225000
vt 0.481377 0.157500
vt 0.487500 0.157500
vt 0.500000 0.225000
vt 0.487500 0.225000
vt 0.487500 0.157500
vt 0.500000 0.157500
vt 0.512500 0.225000
vt 0.512500 0.157500
vt 0.512500 0.157500
vt 0.625000 0.157500
vt 0.875000 0.157500
vt 0.625000 0.592500
vt 0.512500 0.592500
vt 0.500000 0.592500
vt 0.487500 0.592500
vt 0.375000 0.592500
vt 0.125000 0.157500
vt 0.375000 0.157500
vt 0.487500 0.000000
vt 0.500000 0.157500
vt 0.500000 0.000000
vt 0.512500 0.000000
vt 0.625000 0.000000
vt 0.875000 0.000000
vt 0.125000 0.000000
vt 0.375000 0.000000
vt 0.487500 0.225000
vt 0.500000 0.225000
vt 0.487500 0.157500
vt 0.500000 0.157500
vt 0.500000 0.225000
vt 0.512500 0.225000
vt 0.500000 0.157500
vt 0.512500 0.157500
vt 0.463159 0.225000
vt 0.470004 0.157500
vt 0.470004 0.157500
vt 0.487500 0.000000
vt 0.481377 0.157500
vt 0.463159 0.225000
vt 0.474057 0.225000
vt 0.464110 0.250000
vt 0.473638 0.250000
vt 0.466601 0.500000
vt 0.375000 0.000000
vt 0.625000 0.000000
vt 0.625000 0.250000
vt 0.375000 0.250000
vt 0.625000 0.500000
vt 0.375000 0.500000
vt 0.625000 0.750000
vt 0.375000 0.750000
vt 0.625000 1.000000
vt 0.375000 1.000000
vt 0.875000 0.000000
vt 0.875000 0.250000
vt 0.125000 0.000000
vt 0.125000 0.250000
vt 0.500000 0.225000
vt 0.500000 0.157500
vt 0.500000 0.225000
vt 0.487500 0.225000
vt 0.487500 0.225000
vt 0.487500 0.157500
vt 0.487500 0.157500
vt 0.500000 0.157500
vt 0.500000 0.157500
vt 0.500000 0.225000
vt 0.500000 0.225000
vt 0.500000 0.157500
vt 0.500000 0.225000
vt 0.500000 0.157500
vn 0.000000 0.000000 1.000000
vn 0.000000 0.000000 1.000000
vn 0.000000 0.000000 1.000000
vn 0.000000 0.000000 1.000000
vn 1.000000 0.000000 0.000000
vn 1.000000 0.000000 0.000000
vn 1.000000 0.000000 0.000000
vn 1.000000 0.000000 0.000000
vn 0.000000 0.000000 -1.000000
vn 0.000000 0.000000 -1.000000
vn 0.000000 0.000000 -1.000000
vn 0.000000 0.000000 -1.000000
vn -1.000000 0.000000 0.000000
vn -1.000000 0.000000 0.000000
vn -1.000000 0.000000 0.000000
vn -1.000000 0.000000 0.000000
vn 0.000000 -1.000000 0.000000
vn 0.000000 -1.000000 0.000000
vn 0.000000 -1.000000 0.000000
vn 0.000000 -1.000000 0.000000
vn 0.000000 1.000000 0.000000
vn 0.000000 1.000000 0.000000
vn 0.000000 1.000000 0.000000
vn 0.000000 1.000000 0.000000
vn 0.000000 0.000000 1.000000
vn 0.000000 0.000000 1.000000
vn 0.000000 0.000000 1.000000
vn 0.000000 0.000000 1.000000
vn 0.000000 1.000000 0.000000
vn 0.000000 1.000000 0.000000
vn 0.000000 1.000000 0.000000
vn 0.000000 1.000000 0.000000
vn 0.000000 0.000000 -1.000000
vn 0.000000 0.000000 -1.000000
vn 0.000000 0.000000 -1.000000
vn 0.000000 0.000000 -1.000000
vn 0.000000 -1.000000 0.000000
vn 0.000000 -1.000000 0.000000
vn 0.000000 -1.000000 0.000000
vn 0.000000 -1.000000 0.000000
vn 1.000000 0.000000 0.000000
vn 1.000000 0.000000 0.000000
vn 1.000000 0.000000 0.000000
vn 1.000000 0.000000 0.000000
vn -1.000000 0.000000 0.000000
vn -1.000000 0.000000 0.000000
vn -1.000000 0.000000 0.000000
vn -1.000000 0.000000 0.000000
vn 0.000000 0.000000 1.000000
vn 0.000000 0.000000 1.000000
vn 0.000000 0.000000 1.000000
vn 0.000000 0.000000 1.000000
vn 1.000000 0.000000 0.000000
vn 1.000000 0.000000 0.000000
vn 1.000000 0.000000 0.000000
vn 1.000000 0.000000 0.000000
vn 0.000000 0.000000 -1.000000
vn 0.000000 0.000000 -1.000000
vn 0.000000 0.000000 -1.000000
vn 0.000000 0.000000 -1.000000
vn -1.000000 0.000000 0.000000
vn -1.000000 0.000000 0.000000
vn -1.000000 0.000000 0.000000
vn -1.000000 0.000000 0.000000
vn 0.000000 -1.000000 0.000000
vn 0.000000 -1.000000 0.000000
vn 0.000000 -1.000000 0.000000
vn 0.000000 -1.000000 0.000000
vn 0.000000 1.000000 0.000000
vn 0.000000 1.000000 0.000000
vn 0.000000 1.000000 0.000000
vn 0.000000 1.000000 0.000000
vn 0.000000 0.000000 1.000000
vn 0.000000 0.000000 1.000000
vn 0.000000 0.000000 1.000000
vn 0.000000 0.000000 1.000000
vn 0.000000 1.000000 0.000000
vn 0.000000 1.000000 0.000000
vn 0.000000 1.000000 0.000000
vn 0.000000 1.000000 0.000000
vn 0.000000 0.000000 -1.000000
vn 0.000000 0.000000 -1.000000
vn 0.000000 0.000000 -1.000000
vn 0.000000 0.000000 -1.000000
vn 0.000000 -1.000000 0.000000
vn 0.000000 -1.000000 0.000000
vn 0.000000 -1.000000 0.000000
vn 0.000000 -1.000000 0.000000
vn 1.000000 0.000000 0.000000
vn 1.000000 0.000000 0.000000
vn 1.000000 0.000000 0.000000
vn 1.000000 0.000000 0.000000
vn -1.000000 0.000000 0.000000
vn -1.000000 0.000000 0.000000
vn -1.000000 0.000000 0.000000
vn -1.000000 0.000000 0.000000
vn 0.000000 0.000000 1.000000
vn 0.000000 0.000000 1.000000
vn 0.000000 0.000000 1.000000
vn 0.000000 0.000000 1.000000
vn 1.000000 0.000000 0.000000
vn 1.000000 0.000000 0.000000
vn 1.000000 0.000000 0.000000
vn 1.000000 0.000000 0.000000
vn 0.000000 0.000000 -1.000000
vn 0.000000 0.000000 -1.000000
vn 0.000000 0.000000 -1.000000
vn 0.000000 0.000000 -1.000000
vn -1.000000 0.000000 0.000000
vn -1.000000 0.000000 0.000000
vn -1.000000 0.000000 0.000000
vn -1.000000 0.000000 0.000000
vn 0.000000 -1.000000 0.000000
vn 0.000000 -1.000000 0.000000
vn 0.000000 -1.000000 0.000000
vn 0.000000 -1.000000 0.000000
vn 0.000000 1.000000 0.000000
vn 0.000000 1.000000 0.000000
vn 0.000000 1.000000 0.000000
vn 0.000000 1.000000 0.000000
vn 0.000000 0.000000 1.000000
vn 0.000000 0.000000 1.000000
vn 0.000000 0.000000 1.000000
vn 0.000000 0.000000 1.000000
vn 0.000000 1.000000 -0.000000
vn 0.000000 1.000000 0.000000
vn 0.000000 1.000000 0.000000
vn 0.000000 1.000000 0.000000
vn 0.000000 0.000000 -1.000000
vn 0.000000 0.000000 -1.000000
vn 0.000000 0.000000 -1.000000
vn 0.000000 0.000000 -1.000000
vn 0.000000 -1.000000 0.000000
vn 0.000000 -1.000000 0.000000
vn 0.000000 -1.000000 0.000000
vn 0.000000 -1.000000 0.000000
vn 1.000000 0.000000 0.000000
vn 1.000000 0.000000 0.000000
vn 1.000000 0.000000 0.000000
vn 1.000000 0.000000 0.000000
vn -1.000000 0.000000 0.000000
vn -1.000000 0.000000 0.000000
vn -1.000000 0.000000 0.000000
vn -1.000000 0.000000 0.000000
vn 0.000000 -1.000000 -0.000000
vn 0.000000 -1.000000 -0.000000
vn 0.000000 0.000000 -1.000000
vn 0.000000 0.000000 -1.000000
vn 0.000000 1.000000 -0.000000
vn 0.000000 1.000000 -0.000000
vn 0.000000 0.000000 1.000000
vn 0.000000 0.000000 1.000000
vn 0.000000 0.000000 1.000000
vn 0.000000 0.000000 1.000000
vn 0.000000 1.000000 0.000000
vn 0.000000 1.000000 0.000000
vn 0.000000 0.000000 -1.000000
vn 0.000000 0.000000 -1.000000
vn 0.000000 -1.000000 0.000000
vn 0.000000 -1.000000 0.000000
vn 0.000000 -1.000000 -0.000000
vn 0.000000 -1.000000 -0.000000
vn 0.000000 0.000000 -1.000000
vn 0.000000 0.000000 -1.000000
vn 0.000000 0.000000 -1.000000
vn 0.000000 1.000000 0.000000
vn 0.000000 1.000000 0.000000
vn 0.000000 1.000000 0.000000
vn 0.000000 1.000000 0.000000
vn 0.000000 0.000000 1.000000
vn 0.000000 0.000000 1.000000
vn 0.000000 0.000000 1.000000
vn 0.000000 0.000000 1.000000
vn 0.000000 -0.260994 0.965340
vn 0.000000 -0.260994 0.965340
vn 0.000000 -0.260994 0.965340
vn 0.000000 -0.260994 0.965340
vn 0.000000 -0.260994 0.965340
vn 0.000000 -0.260994 0.965340
vn 0.000000 -0.260994 0.965340
vn 0.000000 -0.260994 0.965340
vn 0.000000 0.000000 1.000000
vn 0.000000 0.000000 1.000000
vn 1.000000 0.000000 0.000000
vn 1.000000 0.000000 0.000000
vn 0.000000 0.000000 -1.000000
vn 0.000000 0.000000 -1.000000
vn 0.000000 0.000000 -1.000000
vn 0.000000 0.000000 -1.000000
vn 0.000000 0.000000 -1.000000
vn -1.000000 0.000000 0.000000
vn -1.000000 0.000000 0.000000
vn 0.000000 0.000000 1.000000
vn 0.000000 0.000000 1.000000
vn 0.000000 0.000000 1.000000
vn 0.000000 0.000000 1.000000
vn 0.000000 0.000000 1.000000
vn 1.000000 0.000000 0.000000
vn 1.000000 0.000000 0.000000
vn 0.000000 0.000000 -1.000000
vn 0.000000 0.000000 -1.000000
vn 0.000000 0.000000 -1.000000
vn 0.000000 0.000000 -1.000000
vn 0.000000 0.000000 -1.000000
vn -1.000000 0.000000 0.000000
vn -1.000000 0.000000 0.000000
vn 0.000000 0.000000 1.000000
vn 0.000000 0.000000 1.000000
vn 0.000000 0.000000 1.000000
vn 0.000000 0.000000 1.000000
vn -0.000000 0.000000 1.000000
vn -0.000000 0.000000 1.000000
vn -0.000000 0.000000 1.000000
vn -0.000000 0.000000 1.000000
vn 0.000000 0.000000 1.000000
vn 0.000000 0.000000 1.000000
vn 0.000000 0.000000 1.000000
vn 0.000000 0.000000 1.000000
vn 0.000000 0.000000 1.000000
vn 0.000000 0.000000 1.000000
vn 0.000000 0.000000 1.000000
vn 0.000000 0.000000 1.000000
vn 0.000000 0.000000 1.000000
vn 0.000000 0.000000 1.000000
vn 0.000000 0.000000 1.000000
vn 0.000000 0.000000 1.000000
vn -0.000000 0.000000 1.000000
vn -0.000000 0.000000 1.000000
vn -0.000000 0.000000 1.000000
vn -0.000000 0.000000 1.000000
vn 0.000000 0.000000 1.000000
vn 0.000000 0.000000 1.000000
vn 0.000000 0.000000 1.000000
vn 0.000000 0.000000 1.000000
vn 0.000000 0.000000 1.000000
vn 0.000000 0.000000 1.000000
vn 0.000000 0.000000 1.000000
vn 0.000000 0.000000 1.000000
vn 0.000000 0.998792 0.049130
vn 0.000000 0.998792 0.049130
vn 0.000000 0.998792 0.049130
vn 0.000000 0.998792 0.049130
vn -1.000000 -0.000000 0.000000
vn -1.000000 -0.000000 0.000000
vn -1.000000 -0.000000 0.000000
vn -1.000000 -0.000000 0.000000
vn 0.000000 -0.982463 0.186457
vn 0.000000 -0.982463 0.186457
vn 0.000000 -0.982463 0.186457
vn 0.000000 -0.982463 0.186457
vn 1.000000 0.000000 0.000000
vn 1.000000 0.000000 0.000000
vn 1.000000 0.000000 0.000000
vn 1.000000 0.000000 0.000000
vn 0.000000 0.998792 0.049130
vn 0.000000 0.998792 0.049130
vn 0.000000 0.998792 0.049130
vn 0.000000 0.998792 0.049130
vn -1.000000 -0.000000 0.000000
vn -1.000000 -0.000000 0.000000
vn -1.000000 -0.000000 0.000000
vn -1.000000 -0.000000 0.000000
vn 0.000000 -0.982463 0.186457
vn 0.000000 -0.982463 0.186457
vn 0.000000 -0.982463 0.186457
vn 0.000000 -0.982463 0.186457
vn 1.000000 0.000000 0.000000
vn 1.000000 0.000000 0.000000
vn 1.000000 0.000000 0.000000
vn 1.000000 0.000000 0.000000
vn 0.000000 0.000000 1.000000
vn 0.000000 0.000000 1.000000
vn 0.000000 0.000000 1.000000
vn 0.000000 0.000000 1.000000
vn 0.000000 0.000000 1.000000
vn 0.000000 0.000000 1.000000
vn 0.000000 0.000000 1.000000
vn 0.000000 0.000000 1.000000
vn 0.000000 0.000000 1.000000
vn 0.000000 0.000000 1.000000
vn 0.000000 0.000000 1.000000
vn 0.000000 -0.083906 0.996474
vn 0.000000 -0.077542 0.996989
vn 0.000000 -0.393567 0.919296
vn 0.000000 -0.393567 0.919296
vn 0.000000 1.000000 0.000000
vn 0.000000 1.000000 0.000000
vn 0.000000 0.975309 -0.220845
vn 0.000000 0.975309 -0.220845
vn 0.000000 0.975309 -0.220845
vn 0.976133 0.079780 -0.201987
vn 0.984209 0.077946 -0.158923
vn 0.984209 0.077946 -0.158923
vn 0.975714 0.079861 -0.203970
vn -0.986085 -0.047789 -0.159226
vn -0.977111 -0.060029 -0.204086
vn -0.977482 -0.059578 -0.202434
vn -0.986085 -0.047789 -0.159226
vn 0.946409 0.076095 -0.313877
vn 0.947161 0.077539 -0.311246
vn -0.947054 -0.058111 -0.315771
vn -0.947812 -0.064705 -0.312195
vn 0.986231 -0.100788 -0.131111
vn 0.985774 -0.097512 -0.136896
vn -0.991060 -0.118810 -0.060695
vn -0.990956 -0.110139 -0.076649
vn 0.982642 -0.184298 0.021206
vn 0.982642 -0.184298 0.021206
vn -0.968064 -0.216650 0.126152
vn -0.968064 -0.216650 0.126152
vn 0.000000 0.000000 1.000000
vn 0.000000 0.000000 1.000000
vn 0.000000 0.000000 1.000000
vn 0.000000 0.000000 1.000000
vn 1.000000 0.000000 0.000000
vn 1.000000 0.000000 0.000000
vn 1.000000 0.000000 0.000000
vn 1.000000 0.000000 0.000000
vn 0.000000 0.000000 -1.000000
vn 0.000000 0.000000 -1.000000
vn 0.000000 0.000000 -1.000000
vn 0.000000 0.000000 -1.000000
vn -1.000000 0.000000 0.000000
vn -1.000000 0.000000 0.000000
vn -1.000000 0.000000 0.000000
vn -1.000000 0.000000 0.000000
vn 0.000000 -1.000000 0.000000
vn 0.000000 -1.000000 0.000000
vn 0.000000 -1.000000 0.000000
vn 0.000000 -1.000000 0.000000
vn 0.000000 1.000000 0.000000
vn 0.000000 1.000000 0.000000
vn 0.000000 1.000000 0.000000
vn 0.000000 1.000000 0.000000
s off
g itm_wallsocket_clean
usemtl lambert2SG
f 1/1/1 2/2/2 4/4/3 3/3/4
f 3/3/5 4/4/6 6/6/7 5/5/8
f 5/5/9 6/6/10 8/8/11 7/7/12
f 7/7/13 8/8/14 2/10/15 1/9/16
f 2/2/17 8/11/18 6/12/19 4/4/20
f 7/13/21 1/1/22 3/3/23 5/14/24
f 9/15/25 10/16/26 12/17/27 11/18/28
f 11/18/29 12/17/30 14/19/31 13/20/32
f 13/20/33 14/19/34 16/21/35 15/22/36
f 15/22/37 16/21/38 10/23/39 9/24/40
f 10/16/41 16/25/42 14/26/43 12/17/44
f 15/27/45 9/15/46 11/18/47 13/28/48
f 17/29/49 18/30/50 20/31/51 19/32/52
f 19/32/53 20/31/54 22/33/55 21/34/56
f 21/34/57 22/33/58 24/35/59 23/36/60
f 23/36/61 24/35/62 18/37/63 17/38/64
f 18/30/65 24/39/66 22/40/67 20/31/68
f 23/41/69 17/29/70 19/32/71 21/42/72
f 25/43/73 26/44/74 28/45/75 27/46/76
f 27/46/77 28/45/78 30/47/79 29/48/80
f 29/48/81 30/47/82 32/49/83 31/50/84
f 31/50/85 32/49/86 26/51/87 25/52/88
f 26/44/89 32/53/90 30/54/91 28/45/92
f 31/55/93 25/43/94 27/46/95 29/56/96
f 33/57/97 34/58/98 36/59/99 35/60/100
f 35/60/101 36/59/102 38/61/103 37/62/104
f 37/62/105 38/61/106 40/63/107 39/64/108
f 39/64/109 40/63/110 34/65/111 33/66/112
f 34/58/113 40/67/114 38/68/115 36/59/116
f 39/69/117 33/57/118 35/60/119 37/70/120
s 1
usemtl initialShadingGroup
f 52/71/121 63/72/122 64/73/123 54/74/124
s 2
f 51/75/125 52/71/126 54/74/127 55/76/128
s 3
f 67/77/129 68/78/130 51/75/131 55/76/132
s 4
f 49/79/133 50/80/134 56/81/135 53/82/136
s 5
f 65/83/137 66/84/138 46/85/139 44/86/140
s 6
f 70/87/141 61/88/142 43/89/143 45/90/144
s 4
f 57/91/145 58/92/146 50/80/134 49/79/133
s 3
f 68/78/130 69/93/147 59/94/148 51/75/131
s 2
f 59/94/149 60/95/150 52/71/126 51/75/125
s 1
f 60/95/151 62/96/152 63/72/122 52/71/121
f 54/74/124 64/73/123 65/83/153 44/86/154
s 2
f 55/76/128 54/74/127 44/86/155 46/97/156
s 3
f 66/98/157 67/77/129 55/76/132 46/97/158
s 4
f 53/82/136 56/81/135 48/99/159 42/100/160
f 47/101/161 58/92/146 57/91/145 41/102/162
s 3
f 45/103/163 100/104/164 59/94/148 69/93/147 70/105/165
s off
f 43/89/166 97/106/167 100/104/168 45/103/169
s 1
f 97/107/170 98/108/171 62/96/152 60/95/151
f 98/108/171 99/109/172 72/110/173 62/96/152
s off
f 90/111/174 89/112/175 91/113/176 92/114/177
f 94/115/178 93/167/179 95/168/180 96/116/181
s 1
f 65/83/153 64/73/123 74/117/182 75/118/183
s 5
f 75/118/184 76/119/185 66/84/138 65/83/137
s 3
f 76/120/186 77/121/187 67/77/129 66/98/157
f 77/121/187 78/122/188 68/78/130 67/77/129
f 78/122/188 79/123/189 69/93/147 68/78/130
f 70/105/165 69/93/147 79/123/189 80/124/190
s 6
f 80/125/191 71/126/192 61/88/142 70/87/141
s 1
f 99/109/172 57/127/193 72/110/173
f 73/128/194 72/110/173 57/127/193 49/129/195
f 74/117/182 73/128/194 49/129/195 53/130/196
f 75/118/183 74/117/182 53/130/196 42/131/197
s 5
f 42/131/198 48/132/199 76/119/185 75/118/184
s 3
f 56/81/200 77/121/187 76/120/186 48/99/201
f 50/80/202 78/122/188 77/121/187 56/81/200
f 58/92/203 79/123/189 78/122/188 50/80/202
f 80/124/190 79/123/189 58/92/203 47/101/204
s 6
f 47/133/205 41/134/206 71/126/192 80/125/191
s off
f 63/72/207 62/96/208 81/135/209 82/136/210
f 62/96/211 72/110/212 83/137/213 81/135/214
f 72/110/215 73/128/216 84/138/217 83/137/218
f 73/128/219 63/72/220 82/136/221 84/138/222
f 64/73/223 63/72/224 85/139/225 86/140/226
f 63/72/227 73/128/228 87/141/229 85/139/230
f 73/128/231 74/117/232 88/142/233 87/141/234
f 74/117/235 64/73/236 86/140/237 88/142/238
usemtl lambert3SG
f 82/169/239 81/170/240 89/112/241 90/111/242
usemtl initialShadingGroup
f 81/171/243 83/172/244 91/113/245 89/112/246
f 83/173/247 84/174/248 92/114/249 91/113/250
f 84/175/251 82/176/252 90/111/253 92/114/254
usemtl lambert3SG
f 86/140/255 85/139/256 93/177/257 94/115/258
usemtl initialShadingGroup
f 85/139/259 87/141/260 95/178/261 93/179/262
f 87/141/263 88/142/264 96/116/265 95/180/266
f 88/142/267 86/140/268 94/115/269 96/116/270
s 7
f 61/88/271 98/143/272 97/106/273 43/89/274
f 71/126/275 99/144/276 98/143/272 61/88/271
f 41/134/277 57/127/278 99/144/276 71/126/275
s 8
usemtl lambert2SG
f 102/145/279 101/146/280 103/147/281
f 104/148/282 102/145/279 103/147/281 105/149/283
f 106/150/284 104/148/282 105/149/283 107/151/285
s 2
usemtl initialShadingGroup
f 100/104/286 97/107/287 60/95/150 59/94/149
s off
usemtl lambert2SG
f 108/152/288 106/150/289 107/151/290
s 9
f 99/144/291 57/127/292 101/146/293 102/145/294
s 10
f 57/127/295 99/109/296 103/147/297 101/146/298
s 9
f 98/143/299 99/144/291 102/145/294 104/148/300
s 10
f 99/109/296 98/108/301 105/149/302 103/147/297
s 9
f 97/106/303 98/143/299 104/148/300 106/150/304
s 10
f 98/108/301 97/107/305 107/151/306 105/149/302
s 9
f 100/104/307 97/106/303 106/150/304 108/152/308
s 10
f 97/107/305 100/104/309 108/152/310 107/151/306
s off
f 109/153/311 110/154/312 112/155/313 111/156/314
f 111/156/315 112/155/316 114/157/317 113/158/318
f 113/158/319 114/157/320 116/159/321 115/160/322
f 115/160/323 116/159/324 110/161/325 109/162/326
f 110/154/327 116/163/328 114/164/329 112/155/330
f 115/165/331 109/153/332 111/156/333 113/166/334
