# Blender v2.79 (sub 0) OBJ File: 'door_minigame_01.blend'
# www.blender.org
mtllib door_minigame_01.mtl
o Cube.001
v -1.250000 3.000000 0.225000
v -1.250000 3.500000 0.225000
v -1.250000 3.000000 0.075000
v -1.250000 3.500000 0.075000
v 1.250000 3.000000 0.225000
v 1.250000 3.500000 0.225000
v 1.250000 3.000000 0.075000
v 1.250000 3.500000 0.075000
v 1.250000 0.000000 0.075000
v -1.250000 0.000000 0.075000
v 1.249999 6.500000 0.075000
v -1.250000 6.500000 0.075000
v -1.250000 3.100000 0.300000
v -1.250000 3.400000 0.300000
v -1.250000 3.100000 0.225000
v -1.250000 3.400000 0.225000
v 1.250000 3.100000 0.300000
v 1.250000 3.400000 0.300000
v 1.250000 3.100000 0.225000
v 1.250000 3.400000 0.225000
v -1.000000 3.875000 0.100000
v -1.000000 5.875000 0.100000
v 1.000000 3.875000 0.100000
v 1.000000 5.875000 0.100000
vt 0.137500 0.890000
vt 0.237500 0.890000
vt 0.237500 0.990000
vt 0.137500 0.990000
vt 0.137500 0.890000
vt 0.237500 0.890000
vt 0.237500 0.990000
vt 0.137500 0.890000
vt 0.237500 0.890000
vt 0.137500 0.990000
vt 0.010000 0.890000
vt 0.110000 0.890000
vt 0.110000 0.990000
vt 0.010000 0.990000
vt 1.000000 0.060000
vt 1.000000 0.180000
vt -0.000000 0.180000
vt 0.000000 0.060000
vt 0.000000 0.037500
vt 1.000000 0.037500
vt 1.000000 0.202500
vt 0.000000 0.202500
vt 1.000000 0.250000
vt 1.000000 1.000000
vt 0.250000 1.000000
vt 0.250000 0.250000
vn 0.0000 0.0000 1.0000
vn 0.0000 -1.0000 0.0000
vn 0.0000 1.0000 0.0000
usemtl Material
s off
f 5/1/1 6/2/1 2/3/1 1/4/1
f 3/5/2 7/6/2 5/7/2 1/4/2
f 8/8/3 4/9/3 2/3/3 6/10/3
f 9/11/1 11/12/1 12/13/1 10/14/1
f 17/15/1 18/16/1 14/17/1 13/18/1
f 15/19/2 19/20/2 17/15/2 13/18/2
f 20/21/3 16/22/3 14/17/3 18/16/3
f 23/23/1 24/24/1 22/25/1 21/26/1
