# Blender v2.79 (sub 0) OBJ File: 'room_minigame_02.blend'
# www.blender.org
mtllib room_minigame_02.mtl
o Wall_(4)
v -8.000000 0.499999 4.000000
v 8.000000 0.499999 4.000000
v -8.000000 8.000000 4.000001
v 8.000000 0.500001 -4.000000
v 8.000000 8.000001 -3.999999
v 8.000000 8.000000 4.000001
v 7.900000 0.000001 -4.000000
v -7.900000 0.000001 -4.000000
v -8.000000 8.000001 -3.999999
v 7.900000 0.500001 -4.000000
v 7.900000 0.499999 3.900000
v 7.900000 -0.000001 3.900000
v -8.000000 0.500001 -4.000000
v -7.900000 -0.000001 3.900000
v -7.900000 0.500001 -4.000000
v -7.900000 0.499999 3.900000
vt 0.000000 0.000000
vt 1.000000 1.000000
vt 0.000000 1.000000
vt 1.000000 0.000000
vt 0.000000 0.000000
vt 1.000000 1.000000
vt 0.000000 1.000000
vt 1.000000 0.000000
vt 0.000000 0.000000
vt 1.000000 1.000000
vt 0.000000 1.000000
vt 1.000000 0.000000
vt 0.000000 0.000000
vt 1.000000 1.000000
vt 0.000000 1.000000
vt 1.000000 0.000000
vt 0.000000 0.000000
vt 1.000000 0.000000
vt 1.000000 1.000000
vt 0.000000 1.000000
vt 1.000000 0.000000
vt 0.000000 1.000000
vt 1.000000 0.000000
vt 0.000000 0.000000
vt 1.000000 1.000000
vt 0.000000 1.000000
vt 0.000000 0.000000
vt 1.000000 1.000000
vt 0.000000 0.000000
vt 1.000000 1.000000
vt 0.000000 1.000000
vt 1.000000 0.000000
vt 0.000000 0.000000
vt 1.000000 0.000000
vn 0.4364 0.8729 -0.2182
vn 0.7071 -0.7071 -0.0000
vn 0.4082 -0.4083 -0.8165
vn 0.7071 0.7071 0.0000
vn -0.3333 0.6667 -0.6667
vn -0.6667 -0.6667 -0.3333
vn -0.7071 0.7071 0.0000
vn -0.7071 -0.7071 -0.0000
vn 0.6667 0.6667 -0.3333
vn -0.4083 0.4083 -0.8165
vn -0.4365 0.8729 -0.2182
vn 0.3334 0.6667 -0.6667
usemtl Walls
s 1
f 1/1/1 9/2/2 3/3/3
f 1/1/1 13/4/4 9/2/2
f 2/5/5 3/6/3 6/7/6
f 2/5/5 1/8/1 3/6/3
f 4/9/7 6/10/6 5/11/8
f 4/9/7 2/12/5 6/10/6
usemtl Floor
f 7/13/7 14/14/9 12/15/10
f 7/13/7 8/16/4 14/14/9
usemtl Ceiling
f 6/17/6 9/2/2 5/11/8
f 6/17/6 3/18/3 9/2/2
f 4/9/7 11/19/11 2/20/5
f 4/9/7 10/21/7 11/19/11
f 7/13/7 11/19/11 10/22/7
f 7/13/7 12/23/10 11/19/11
f 15/24/4 1/25/1 16/26/12
f 15/24/4 13/4/4 1/25/1
f 14/27/9 15/28/4 16/26/12
f 14/27/9 8/16/4 15/28/4
f 12/29/10 16/30/12 11/31/11
f 12/29/10 14/32/9 16/30/12
f 11/33/11 1/25/1 2/20/5
f 11/33/11 16/34/12 1/25/1
