# Blender v2.79 (sub 0) OBJ File: 'room_minigame_01.blend'
# www.blender.org
mtllib room_minigame_01.mtl
o Wall_(4)
v -8.000000 0.499999 4.000000
v 8.000000 0.499999 4.000000
v 8.000000 8.000000 4.000001
v -2.500000 0.499999 4.000000
v 8.000000 0.500001 -4.000000
v 8.000000 8.000001 -3.999999
v -6.000000 7.000000 4.000001
v 7.900000 0.000001 -4.000000
v -7.900000 0.000001 -4.000000
v -8.000000 8.000001 -3.999999
v 7.900000 0.500001 -4.000000
v 7.900000 0.499999 3.900000
v 7.900000 -0.000001 3.900000
v -2.500000 7.000000 4.000001
v -8.000000 8.000000 4.000001
v -8.000000 0.500001 -4.000000
v -7.900000 -0.000001 3.900000
v -7.900000 0.500001 -4.000000
v -2.500000 0.499999 3.900000
v -2.500000 -0.000001 3.900000
v -6.000000 -0.000001 3.900000
v -7.900000 0.499999 3.900000
v -6.000000 0.499999 3.900000
v -6.000000 0.499999 4.000000
v -3.000000 -0.000001 3.900000
v -5.500000 -0.000001 3.900000
v -6.000000 7.000000 3.800001
v -6.000000 -0.000001 3.800000
v -6.000000 -0.000001 4.000000
v -5.500000 -0.000001 5.000000
v -5.500000 6.499999 5.000001
v -5.500000 -0.000001 3.800000
v -2.500000 -0.000001 3.800000
v -2.500000 7.000000 3.800001
v -3.000000 6.500000 3.800001
v -3.000000 -0.000001 3.800000
v -3.000000 6.499999 5.000001
v -3.000000 -0.000001 5.000000
v -2.500000 -0.000001 4.000000
v -5.500000 6.500000 3.800001
vt 0.000000 0.000000
vt 1.000000 1.000000
vt 0.000000 1.000000
vt 1.000000 0.000000
vt 0.000000 0.000000
vt 1.000000 1.000000
vt 0.000000 1.000000
vt 1.000000 0.000000
vt 0.000000 0.000000
vt 1.000000 1.000000
vt 0.000000 1.000000
vt 1.000000 0.000000
vt 0.000000 0.000000
vt 1.000000 1.000000
vt 1.000000 0.000000
vt 0.000000 0.000000
vt 0.000000 1.000000
vt 1.000000 0.000000
vt 0.000000 0.000000
vt 1.000000 1.000000
vt 0.000000 1.000000
vt 1.000000 0.000000
vt 0.000000 0.000000
vt 1.000000 0.000000
vt 1.000000 1.000000
vt 0.000000 1.000000
vt 0.000000 0.000000
vt 1.000000 0.000000
vt 1.000000 1.000000
vt 0.000000 1.000000
vt 1.000000 0.000000
vt 0.000000 1.000000
vt 1.000000 0.000000
vt 0.000000 0.000000
vt 1.000000 1.000000
vt 0.000000 1.000000
vt 0.000000 0.000000
vt 1.000000 1.000000
vt 0.000000 0.000000
vt 1.000000 1.000000
vt 0.000000 1.000000
vt 1.000000 0.000000
vt 0.000000 0.000000
vt 1.000000 1.000000
vt 1.000000 0.000000
vt 0.000000 0.000000
vt 1.000000 1.000000
vt 0.000000 1.000000
vt 1.000000 0.000000
vt 0.000000 0.000000
vt 0.000000 1.000000
vt 1.000000 0.000000
vt 0.000000 0.000000
vt 1.000000 1.000000
vt 0.000000 1.000000
vt 1.000000 0.000000
vt 0.000000 0.000000
vt 1.000000 1.000000
vt 0.000000 1.000000
vt 1.000000 0.000000
vt 1.000000 1.000000
vt 0.000000 1.000000
vt 1.000000 0.000000
vt 0.000000 0.000000
vt 1.000000 1.000000
vt 0.000000 1.000000
vt 1.000000 0.000000
vt 0.000000 0.000000
vt 1.000000 1.000000
vt 0.000000 1.000000
vt 0.000000 0.000000
vt 1.000000 1.000000
vt 0.000000 1.000000
vt 1.000000 0.000000
vt 0.000000 0.000000
vt 1.000000 0.000000
vt 0.000000 0.000000
vt 1.000000 0.000000
vt 0.000000 0.000000
vt 1.000000 0.000000
vn 0.4364 0.8729 -0.2182
vn 0.7071 -0.7071 -0.0000
vn 0.2357 -0.2357 -0.9428
vn 0.7071 0.7071 0.0000
vn -0.3333 0.6666 -0.6667
vn 0.2357 0.2357 -0.9428
vn -0.5774 -0.5774 -0.5774
vn 0.0000 0.8944 -0.4472
vn -0.7071 0.7071 0.0000
vn -0.7071 -0.7071 -0.0000
vn -0.5774 0.5773 -0.5774
vn -0.0000 0.4472 -0.8944
vn 0.6667 0.6667 -0.3333
vn -0.4083 0.4082 -0.8165
vn 0.0000 1.0000 0.0000
vn -0.4364 0.8729 -0.2182
vn 0.3334 0.6667 -0.6666
vn 0.0000 0.0000 -1.0000
vn -0.0002 0.8944 -0.4472
vn 0.4472 0.0000 -0.8944
vn -0.2357 0.2357 -0.9428
vn 0.5773 -0.5774 -0.5773
vn -0.8944 0.0000 -0.4472
vn -1.0000 0.0000 0.0000
vn -0.2357 -0.2357 -0.9428
vn 0.5774 0.5774 -0.5774
vn 1.0000 0.0000 0.0000
usemtl Walls
s 1
f 1/1/1 10/2/2 15/3/3
f 1/1/1 16/4/4 10/2/2
f 2/5/5 14/6/6 3/7/7
f 2/5/5 4/8/8 14/6/6
f 5/9/9 3/10/7 6/11/10
f 5/9/9 2/12/5 3/10/7
f 14/13/6 15/14/3 3/7/7
f 14/13/6 7/15/11 15/14/3
f 24/16/12 15/14/3 7/17/11
f 24/16/12 1/18/1 15/14/3
usemtl Floor
f 8/19/9 17/20/13 13/21/14
f 8/19/9 9/22/4 17/20/13
f 30/23/4 38/24/9 25/25/15
f 25/25/15 26/26/15 30/23/4
usemtl Ceiling
f 3/27/7 10/2/2 6/11/10
f 3/27/7 15/28/3 10/2/2
f 5/9/9 12/29/16 2/30/5
f 5/9/9 11/31/9 12/29/16
f 8/19/9 12/29/16 11/32/9
f 8/19/9 13/33/14 12/29/16
f 18/34/4 1/35/1 22/36/17
f 18/34/4 16/4/4 1/35/1
f 17/37/13 18/38/4 22/36/17
f 17/37/13 9/22/4 18/38/4
f 13/39/14 19/40/12 12/41/16
f 13/39/14 20/42/18 19/40/12
f 12/43/16 4/44/8 2/30/5
f 12/43/16 19/45/12 4/44/8
f 21/46/18 22/47/17 23/48/19
f 21/46/18 17/49/13 22/47/17
f 23/50/19 1/35/1 24/51/12
f 23/50/19 22/52/17 1/35/1
f 32/53/20 27/54/21 40/55/22
f 32/53/20 28/56/23 27/54/21
f 28/57/23 7/58/11 27/59/21
f 28/57/23 29/60/24 7/58/11
f 30/23/4 40/61/22 31/62/2
f 30/23/4 32/63/20 40/61/22
f 33/64/20 35/65/25 34/66/26
f 33/64/20 36/67/23 35/65/25
f 36/68/23 37/69/10 35/70/25
f 36/68/23 38/24/9 37/69/10
f 39/71/27 34/72/26 14/73/6
f 39/71/27 33/74/20 34/72/26
f 35/75/25 27/54/21 34/66/26
f 35/75/25 40/76/22 27/54/21
f 34/77/26 7/58/11 14/73/6
f 34/77/26 27/78/21 7/58/11
f 37/79/10 40/61/22 35/70/25
f 37/79/10 31/80/2 40/61/22
