# Blender v2.79 (sub 0) OBJ File: 'room_minigame_02.blend'
# www.blender.org
mtllib room_minigame_02.mtl
o Wall_(4)
v -8.000000 0.499999 4.000000
v 8.000000 0.499999 4.000000
v -8.000000 8.000000 4.000001
v 8.000000 0.500001 -4.000000
v 8.000000 8.000001 -3.999999
v 8.000000 8.000000 4.000001
v 7.900000 0.000001 -4.000000
v -7.900000 0.000001 -4.000000
v -8.000000 8.000001 -3.999999
v 7.900000 0.500001 -4.000000
v 7.900000 0.499999 3.900000
v 7.900000 -0.000001 3.900000
v -8.000000 0.500001 -4.000000
v -7.900000 -0.000001 3.900000
v -7.900000 0.500001 -4.000000
v -7.900000 0.499999 3.900000
vt 2.999709 0.000290
vt 0.000290 2.812246
vt 2.999710 2.812246
vt 0.000290 0.000290
vt 5.999589 0.999589
vt 0.000411 -1.812525
vt 5.999589 -1.812525
vt 0.000411 0.999589
vt 2.999710 0.000290
vt 0.000291 2.812246
vt 2.999710 2.812246
vt 0.000290 0.000291
vt 0.000424 0.999575
vt 2.999999 -4.999576
vt 2.999999 0.999575
vt 0.000424 -4.999576
vt 0.000000 0.000000
vt 1.000000 1.000000
vt 0.000000 1.000000
vt 1.000000 0.000000
vt 0.000000 0.000000
vt 1.000000 1.000000
vt 0.000000 1.000000
vt 1.000000 0.000000
vt 0.000000 0.000000
vt 0.000000 1.000000
vt 1.000000 0.000000
vt 0.000000 0.000000
vt 1.000000 1.000000
vt 0.000000 1.000000
vt 1.000000 0.000000
vt 0.000000 0.000000
vt 1.000000 1.000000
vt 1.000000 0.000000
vt 0.000000 0.000000
vt 1.000000 1.000000
vt 0.000000 1.000000
vt 1.000000 0.000000
vt 0.000000 0.000000
vt 1.000000 0.000000
vn 0.4364 0.8729 -0.2182
vn 0.7071 -0.7071 -0.0000
vn 0.4082 -0.4083 -0.8165
vn 0.7071 0.7071 0.0000
vn -0.3333 0.6667 -0.6667
vn -0.6667 -0.6667 -0.3333
vn -0.7071 0.7071 0.0000
vn -0.7071 -0.7071 -0.0000
vn 0.6667 0.6667 -0.3333
vn -0.4083 0.4083 -0.8165
vn -0.4365 0.8729 -0.2182
vn 0.3334 0.6667 -0.6667
usemtl Walls
s 1
f 1/1/1 9/2/2 3/3/3
f 1/1/1 13/4/4 9/2/2
f 2/5/5 3/6/3 6/7/6
f 2/5/5 1/8/1 3/6/3
f 4/9/7 6/10/6 5/11/8
f 4/9/7 2/12/5 6/10/6
usemtl Floor
f 7/13/7 14/14/9 12/15/10
f 7/13/7 8/16/4 14/14/9
usemtl Ceiling
f 6/17/6 9/18/2 5/19/8
f 6/17/6 3/20/3 9/18/2
f 4/21/7 11/22/11 2/23/5
f 4/21/7 10/24/7 11/22/11
f 7/25/7 11/22/11 10/26/7
f 7/25/7 12/27/10 11/22/11
f 15/28/4 1/29/1 16/30/12
f 15/28/4 13/31/4 1/29/1
f 14/32/9 15/33/4 16/30/12
f 14/32/9 8/34/4 15/33/4
f 12/35/10 16/36/12 11/37/11
f 12/35/10 14/38/9 16/36/12
f 11/39/11 1/29/1 2/23/5
f 11/39/11 16/40/12 1/29/1
