# Blender v2.79 (sub 0) OBJ File: 'Book_02.blend'
# www.blender.org
mtllib clutter_book_02.mtl
o Cube
v 0.050000 -0.450000 -0.300000
v 0.050000 -0.450000 0.300000
v -0.050000 -0.450000 0.300000
v -0.050000 -0.450000 -0.300000
v 0.050000 0.450000 -0.300000
v 0.050000 0.450000 0.300000
v -0.050000 0.450000 0.300000
v -0.050000 0.450000 -0.300000
v 0.020000 -0.427500 -0.285000
v -0.020000 -0.427500 -0.285000
v 0.020000 0.427500 -0.285000
v -0.020000 0.427500 -0.285000
v -0.020000 0.427500 0.270000
v 0.020000 0.427500 0.270000
v 0.020000 -0.427500 0.270000
v -0.020000 -0.427500 0.270000
vt 0.562500 0.500000
vt 0.750000 0.500000
vt 0.750000 0.750000
vt 0.562500 0.750000
vt 0.812500 0.500000
vt 1.000000 0.500000
vt 1.000000 0.750000
vt 0.812500 0.750000
vt 0.565000 0.735000
vt 0.575000 0.735000
vt 0.575000 0.745000
vt 0.565000 0.745000
vt 0.565000 0.735000
vt 0.575000 0.735000
vt 0.575000 0.745000
vt 0.565000 0.745000
vt 0.500000 0.750000
vt 0.500000 0.500000
vt 0.562500 0.500000
vt 0.562500 0.750000
vt 0.750000 0.500000
vt 0.812500 0.750000
vt 0.575000 0.735000
vt 0.575000 0.745000
vt 0.565000 0.745000
vt 0.565000 0.735000
vt 0.575000 0.735000
vt 0.575000 0.745000
vt 0.565000 0.745000
vt 0.565000 0.735000
vt 0.575000 0.745000
vt 0.565000 0.745000
vt 0.565000 0.735000
vt 0.575000 0.735000
vt 0.565000 0.745000
vt 0.575000 0.735000
vt 0.575000 0.745000
vt 0.565000 0.745000
vt 0.565000 0.735000
vt 0.575000 0.735000
vt 0.500000 0.500000
vt 0.562500 0.500000
vt 0.562500 0.750000
vt 0.500000 0.750000
vt 0.500000 0.750000
vt 0.500000 0.500000
vt 0.562500 0.500000
vt 0.562500 0.750000
vn 1.0000 0.0000 0.0000
vn -1.0000 -0.0000 -0.0000
vn 0.4472 0.0000 -0.8944
vn -0.4472 0.0000 -0.8944
vn 0.0000 0.0000 -1.0000
vn -0.0000 -0.0000 1.0000
vn -0.6000 0.8000 0.0000
vn -0.6000 -0.8000 0.0000
vn 0.0000 -0.8000 -0.6000
vn 0.6000 -0.8000 -0.0000
vn 0.6000 0.8000 0.0000
vn 0.0000 0.8000 -0.6000
vn 0.0000 1.0000 -0.0000
vn 0.0000 -1.0000 0.0000
usemtl Material
s off
f 1/1/1 5/2/1 6/3/1 2/4/1
f 3/5/2 7/6/2 8/7/2 4/8/2
f 12/9/3 10/10/3 4/11/3 8/12/3
f 5/13/4 1/14/4 9/15/4 11/16/4
f 11/17/5 9/18/5 10/19/5 12/20/5
f 2/21/6 6/3/6 7/22/6 3/5/6
f 5/13/7 11/23/7 14/24/7 6/25/7
f 1/26/8 2/27/8 15/28/8 9/29/8
f 15/30/9 2/27/9 3/31/9 16/32/9
f 10/33/10 16/34/10 3/31/10 4/35/10
f 12/9/11 8/36/11 7/37/11 13/38/11
f 14/39/12 13/40/12 7/37/12 6/25/12
f 11/41/13 12/42/13 13/43/13 14/44/13
f 9/45/14 15/46/14 16/47/14 10/48/14
