# Blender v2.79 (sub 0) OBJ File: 'Book_03.blend'
# www.blender.org
mtllib clutter_book_03.mtl
o Cube
v 0.075000 -0.500000 -0.350000
v 0.075000 -0.500000 0.350000
v -0.075000 -0.500000 0.350000
v -0.075000 -0.500000 -0.350000
v 0.075000 0.500000 -0.350000
v 0.075000 0.500000 0.350000
v -0.075000 0.500000 0.350000
v -0.075000 0.500000 -0.350000
v 0.045000 -0.475000 -0.325000
v 0.045000 0.475000 -0.325000
v -0.045000 -0.475000 -0.325000
v -0.045000 0.475000 -0.325000
v 0.045000 0.475000 0.325000
v -0.045000 0.475000 0.325000
v 0.045000 -0.475000 0.325000
v -0.045000 -0.475000 0.325000
vt 0.562500 0.250000
vt 0.562500 0.500000
vt 0.750000 0.500000
vt 0.750000 0.250000
vt 0.812500 0.500000
vt 0.812500 0.250000
vt 1.000000 0.250000
vt 1.000000 0.500000
vt 0.565313 0.487188
vt 0.575313 0.487188
vt 0.575313 0.497187
vt 0.565313 0.497187
vt 0.565313 0.487188
vt 0.575313 0.487188
vt 0.575313 0.497187
vt 0.565313 0.497187
vt 0.575313 0.487188
vt 0.575313 0.497187
vt 0.565313 0.497187
vt 0.812500 0.250000
vt 0.812500 0.500000
vt 0.750000 0.500000
vt 0.750000 0.250000
vt 0.565313 0.487188
vt 0.575313 0.487188
vt 0.575313 0.497187
vt 0.565313 0.497187
vt 0.500000 0.250000
vt 0.500000 0.500000
vt 0.562500 0.500000
vt 0.562500 0.250000
vt 0.565313 0.487188
vt 0.575313 0.487188
vt 0.575313 0.497187
vt 0.565313 0.497187
vt 0.565313 0.487188
vt 0.575313 0.487188
vt 0.575313 0.497187
vt 0.565313 0.487188
vt 0.565313 0.497187
vt 0.575313 0.487188
vt 0.565313 0.497187
vt 0.562500 0.500000
vt 0.500000 0.500000
vt 0.500000 0.250000
vt 0.562500 0.250000
vn 1.0000 0.0000 0.0000
vn -1.0000 -0.0000 -0.0000
vn -0.6402 0.0000 -0.7682
vn 0.6402 0.0000 -0.7682
vn -0.6402 0.7682 -0.0000
vn -0.0000 -0.0000 1.0000
vn 0.6402 -0.7682 0.0000
vn 0.0000 0.0000 -1.0000
vn -0.6402 -0.7682 -0.0000
vn 0.0000 0.7071 -0.7071
vn 0.0000 -0.7071 -0.7071
vn 0.6402 0.7682 0.0000
vn 0.0000 1.0000 0.0000
vn 0.0000 -1.0000 -0.0000
usemtl Material
s off
f 1/1/1 5/2/1 6/3/1 2/4/1
f 3/5/2 7/6/2 8/7/2 4/8/2
f 5/9/3 1/10/3 9/11/3 10/12/3
f 12/13/4 11/14/4 4/15/4 8/16/4
f 5/9/5 10/17/5 13/18/5 6/19/5
f 2/20/6 6/21/6 7/22/6 3/23/6
f 11/24/7 16/25/7 3/26/7 4/27/7
f 10/28/8 9/29/8 11/30/8 12/31/8
f 1/32/9 2/33/9 15/34/9 9/35/9
f 13/36/10 14/37/10 7/38/10 6/19/10
f 15/39/11 2/33/11 3/26/11 16/40/11
f 12/13/12 8/41/12 7/38/12 14/42/12
f 10/28/13 12/31/13 14/43/13 13/44/13
f 9/29/14 15/45/14 16/46/14 11/30/14
