# Blender v2.79 (sub 0) OBJ File: ''
# www.blender.org
mtllib sphere_medium_poly.mtl
o Sphere_Sphere.002
v 0.000000 0.293893 -0.404509
v 0.000000 0.154508 -0.475528
v 0.000000 -0.154509 -0.475528
v 0.000000 -0.293893 -0.404509
v 0.000000 -0.404509 -0.293893
v 0.000000 -0.475528 -0.154508
v 0.067039 0.475528 -0.139207
v 0.127515 0.404509 -0.264788
v 0.175510 0.293893 -0.364450
v 0.206324 0.154508 -0.428436
v 0.216942 -0.000000 -0.450484
v 0.206324 -0.154509 -0.428436
v 0.175510 -0.293893 -0.364450
v 0.127515 -0.404509 -0.264788
v 0.067039 -0.475528 -0.139207
v 0.120800 0.475528 -0.096334
v 0.229775 0.404509 -0.183239
v 0.316258 0.293893 -0.252207
v 0.371783 0.154508 -0.296487
v 0.390916 -0.000000 -0.311745
v 0.371783 -0.154509 -0.296487
v 0.316258 -0.293893 -0.252207
v 0.229775 -0.404509 -0.183239
v 0.120800 -0.475528 -0.096334
v 0.150635 0.475528 -0.034381
v 0.286524 0.404509 -0.065397
v 0.394367 0.293893 -0.090011
v 0.463606 0.154508 -0.105815
v 0.487464 -0.000000 -0.111260
v 0.463606 -0.154509 -0.105815
v 0.394367 -0.293893 -0.090011
v 0.286524 -0.404509 -0.065397
v 0.150635 -0.475528 -0.034381
v 0.150635 0.475528 0.034382
v 0.286524 0.404509 0.065398
v 0.394367 0.293893 0.090012
v 0.463606 0.154508 0.105815
v 0.487464 -0.000000 0.111261
v 0.463606 -0.154509 0.105815
v 0.394367 -0.293893 0.090012
v 0.286524 -0.404509 0.065397
v 0.150635 -0.475528 0.034382
v 0.120800 0.475528 0.096335
v 0.229775 0.404509 0.183239
v 0.316258 0.293893 0.252207
v 0.371783 0.154508 0.296487
v 0.390916 -0.000000 0.311745
v 0.371783 -0.154509 0.296487
v 0.316258 -0.293893 0.252207
v 0.229775 -0.404509 0.183239
v 0.120800 -0.475528 0.096335
v 0.067039 0.475528 0.139208
v 0.127515 0.404509 0.264788
v 0.175510 0.293893 0.364450
v 0.206324 0.154508 0.428436
v 0.216942 -0.000000 0.450485
v 0.206324 -0.154509 0.428436
v 0.175510 -0.293893 0.364450
v 0.127515 -0.404509 0.264788
v 0.067039 -0.475528 0.139208
v -0.000000 0.475528 0.154509
v -0.000000 0.404509 0.293893
v -0.000000 0.293893 0.404509
v -0.000000 0.154508 0.475529
v -0.000000 -0.000000 0.500000
v -0.000000 -0.154509 0.475529
v -0.000000 -0.293893 0.404509
v -0.000000 -0.404509 0.293893
v -0.000000 -0.475528 0.154509
v 0.000000 -0.500000 0.000000
v -0.000000 0.500000 0.000000
v -0.067039 0.475528 0.139208
v -0.127515 0.404509 0.264788
v -0.175510 0.293893 0.364450
v -0.206324 0.154508 0.428436
v -0.216942 -0.000000 0.450485
v -0.206324 -0.154509 0.428436
v -0.175510 -0.293893 0.364450
v -0.127515 -0.404509 0.264788
v -0.067039 -0.475528 0.139208
v -0.120800 0.475528 0.096335
v -0.229775 0.404509 0.183239
v -0.316258 0.293893 0.252207
v -0.371783 0.154508 0.296487
v -0.390916 -0.000000 0.311745
v -0.371783 -0.154509 0.296487
v -0.316258 -0.293893 0.252207
v -0.229775 -0.404509 0.183239
v -0.120800 -0.475528 0.096335
v -0.150635 0.475528 0.034382
v -0.286524 0.404509 0.065397
v -0.394367 0.293893 0.090012
v -0.463606 0.154508 0.105815
v -0.487464 -0.000000 0.111260
v -0.463606 -0.154509 0.105815
v -0.394367 -0.293893 0.090012
v -0.286524 -0.404509 0.065397
v -0.150635 -0.475528 0.034382
v -0.150635 0.475528 -0.034381
v -0.286524 0.404509 -0.065397
v -0.394367 0.293893 -0.090012
v -0.463606 0.154508 -0.105815
v -0.487464 -0.000000 -0.111260
v -0.463606 -0.154509 -0.105815
v -0.394367 -0.293893 -0.090012
v -0.286524 -0.404509 -0.065397
v -0.150635 -0.475528 -0.034381
v -0.120800 0.475528 -0.096334
v -0.229775 0.404509 -0.183239
v -0.316257 0.293893 -0.252207
v -0.371783 0.154508 -0.296487
v -0.390916 -0.000000 -0.311745
v -0.371783 -0.154509 -0.296487
v -0.316257 -0.293893 -0.252207
v -0.229775 -0.404509 -0.183239
v -0.120800 -0.475528 -0.096334
v -0.067039 0.475528 -0.139207
v -0.127515 0.404509 -0.264788
v -0.175510 0.293893 -0.364450
v -0.206324 0.154508 -0.428436
v -0.216942 -0.000000 -0.450484
v -0.206324 -0.154509 -0.428436
v -0.175510 -0.293893 -0.364450
v -0.127515 -0.404509 -0.264788
v -0.067039 -0.475528 -0.139207
v 0.000000 0.475528 -0.154508
v 0.000000 0.404509 -0.293893
v 0.000000 -0.000000 -0.500000
vt 0.714286 0.800000
vt 0.714286 0.900000
vt 0.642857 0.900000
vt 0.642857 0.800000
vt 0.714286 0.100000
vt 0.714286 0.200000
vt 0.642857 0.200000
vt 0.642857 0.100000
vt 0.714286 0.400000
vt 0.714286 0.500000
vt 0.642857 0.500000
vt 0.642857 0.400000
vt 0.714286 0.700000
vt 0.642857 0.700000
vt 0.678571 0.000000
vt 0.714286 0.300000
vt 0.642857 0.300000
vt 0.714286 0.600000
vt 0.642857 0.600000
vt 0.678571 1.000000
vt 0.571429 0.200000
vt 0.571428 0.100000
vt 0.571429 0.500000
vt 0.571429 0.400000
vt 0.571428 0.800000
vt 0.571429 0.700000
vt 0.607143 0.000000
vt 0.571429 0.300000
vt 0.571429 0.600000
vt 0.607143 1.000000
vt 0.571428 0.900000
vt 0.500000 0.600000
vt 0.500000 0.500000
vt 0.500000 0.900000
vt 0.500000 0.800000
vt 0.500000 0.200000
vt 0.500000 0.100000
vt 0.500000 0.400000
vt 0.500000 0.700000
vt 0.535714 0.000000
vt 0.500000 0.300000
vt 0.535714 1.000000
vt 0.464285 1.000000
vt 0.428571 0.900000
vt 0.428571 0.300000
vt 0.428571 0.200000
vt 0.428571 0.600000
vt 0.428571 0.500000
vt 0.428571 0.800000
vt 0.428571 0.100000
vt 0.428571 0.400000
vt 0.428571 0.700000
vt 0.464285 0.000000
vt 0.357143 0.700000
vt 0.357143 0.600000
vt 0.392857 1.000000
vt 0.357143 0.900000
vt 0.357143 0.300000
vt 0.357143 0.200000
vt 0.357143 0.500000
vt 0.357143 0.800000
vt 0.357143 0.100000
vt 0.357143 0.400000
vt 0.392857 0.000000
vt 0.321428 0.000000
vt 0.285714 0.100000
vt 0.285714 0.400000
vt 0.285714 0.300000
vt 0.285714 0.700000
vt 0.285714 0.600000
vt 0.321428 1.000000
vt 0.285714 0.900000
vt 0.285714 0.200000
vt 0.285714 0.500000
vt 0.285714 0.800000
vt 0.214286 0.500000
vt 0.214286 0.400000
vt 0.214286 0.800000
vt 0.214286 0.700000
vt 0.250000 0.000000
vt 0.214286 0.100000
vt 0.214286 0.300000
vt 0.214286 0.600000
vt 0.250000 1.000000
vt 0.214286 0.900000
vt 0.214286 0.200000
vt 0.142857 0.900000
vt 0.142857 0.800000
vt 0.142857 0.200000
vt 0.142857 0.100000
vt 0.142857 0.500000
vt 0.142857 0.400000
vt 0.142857 0.700000
vt 0.178571 0.000000
vt 0.142857 0.300000
vt 0.142857 0.600000
vt 0.178571 1.000000
vt 0.071429 0.600000
vt 0.071429 0.500000
vt 0.071429 0.900000
vt 0.071429 0.800000
vt 0.071429 0.200000
vt 0.071429 0.100000
vt 0.071429 0.400000
vt 0.071429 0.700000
vt 0.107143 0.000000
vt 0.071429 0.300000
vt 0.107143 1.000000
vt 0.035715 1.000000
vt 0.000000 0.900000
vt 0.000000 0.300000
vt 0.000000 0.200000
vt 0.000000 0.600000
vt 0.000000 0.500000
vt 0.000000 0.800000
vt 0.000000 0.100000
vt 0.000000 0.400000
vt 0.000000 0.700000
vt 0.035714 0.000000
vt 1.000000 0.300000
vt 1.000000 0.400000
vt 0.928571 0.400000
vt 0.928571 0.300000
vt 1.000000 0.600000
vt 1.000000 0.700000
vt 0.928571 0.700000
vt 0.928571 0.600000
vt 1.000000 0.900000
vt 0.964286 1.000000
vt 0.928572 0.900000
vt 1.000000 0.200000
vt 0.928571 0.200000
vt 1.000000 0.500000
vt 0.928571 0.500000
vt 1.000000 0.800000
vt 0.928571 0.800000
vt 1.000000 0.100000
vt 0.928572 0.100000
vt 0.964286 0.000000
vt 0.857143 0.800000
vt 0.857143 0.700000
vt 0.892857 0.000000
vt 0.857143 0.100000
vt 0.857143 0.400000
vt 0.857143 0.300000
vt 0.857143 0.600000
vt 0.892857 1.000000
vt 0.857143 0.900000
vt 0.857143 0.200000
vt 0.857143 0.500000
vt 0.785714 0.500000
vt 0.785714 0.400000
vt 0.785714 0.800000
vt 0.785714 0.700000
vt 0.821429 0.000000
vt 0.785714 0.100000
vt 0.785714 0.300000
vt 0.785714 0.600000
vt 0.821429 1.000000
vt 0.785714 0.900000
vt 0.785714 0.200000
vt 0.750000 0.000000
vt 0.750000 1.000000
vn 0.1031 0.8863 -0.4516
vn 0.1031 -0.8863 -0.4516
vn 0.2199 -0.1526 -0.9635
vn 0.1593 0.6981 -0.6981
vn 0.0357 -0.9871 -0.1563
vn 0.1993 -0.4449 -0.8731
vn 0.1993 0.4449 -0.8731
vn 0.0357 0.9871 -0.1563
vn 0.1593 -0.6981 -0.6981
vn 0.2199 0.1526 -0.9635
vn 0.2888 -0.8863 -0.3621
vn 0.6162 -0.1526 -0.7727
vn 0.4464 0.6981 -0.5598
vn 0.1000 -0.9871 -0.1254
vn 0.5584 -0.4449 -0.7002
vn 0.5584 0.4449 -0.7002
vn 0.1000 0.9871 -0.1254
vn 0.4464 -0.6981 -0.5598
vn 0.6162 0.1526 -0.7727
vn 0.2888 0.8863 -0.3621
vn 0.8904 0.1526 -0.4288
vn 0.4173 0.8863 -0.2010
vn 0.4173 -0.8863 -0.2010
vn 0.8904 -0.1526 -0.4288
vn 0.6451 0.6981 -0.3107
vn 0.1445 -0.9871 -0.0696
vn 0.8069 -0.4449 -0.3886
vn 0.8069 0.4449 -0.3886
vn 0.1445 0.9871 -0.0696
vn 0.6451 -0.6981 -0.3107
vn 0.1604 0.9871 0.0000
vn 0.7160 -0.6981 0.0000
vn 0.9883 0.1526 0.0000
vn 0.4632 0.8863 0.0000
vn 0.4632 -0.8863 0.0000
vn 0.9883 -0.1526 0.0000
vn 0.7160 0.6981 0.0000
vn 0.1604 -0.9871 -0.0000
vn 0.8956 -0.4449 0.0000
vn 0.8956 0.4449 0.0000
vn 0.8069 0.4449 0.3886
vn 0.1445 0.9871 0.0696
vn 0.6451 -0.6981 0.3107
vn 0.8904 0.1526 0.4288
vn 0.4173 0.8863 0.2010
vn 0.4173 -0.8863 0.2010
vn 0.8904 -0.1526 0.4288
vn 0.6451 0.6981 0.3107
vn 0.1445 -0.9871 0.0696
vn 0.8069 -0.4449 0.3886
vn 0.1000 -0.9871 0.1254
vn 0.5584 -0.4449 0.7002
vn 0.5584 0.4449 0.7002
vn 0.1000 0.9871 0.1254
vn 0.4464 -0.6981 0.5598
vn 0.6162 0.1526 0.7727
vn 0.2888 0.8863 0.3621
vn 0.2888 -0.8863 0.3621
vn 0.6162 -0.1526 0.7727
vn 0.4464 0.6981 0.5598
vn 0.2199 -0.1526 0.9635
vn 0.1593 0.6981 0.6981
vn 0.0357 -0.9871 0.1563
vn 0.1993 -0.4449 0.8731
vn 0.1993 0.4449 0.8731
vn 0.0357 0.9871 0.1563
vn 0.1593 -0.6981 0.6981
vn 0.2199 0.1526 0.9635
vn 0.1031 0.8863 0.4516
vn 0.1031 -0.8863 0.4516
vn -0.1031 0.8863 0.4516
vn -0.1031 -0.8863 0.4516
vn -0.2199 -0.1526 0.9635
vn -0.1593 0.6981 0.6981
vn -0.0357 -0.9871 0.1563
vn -0.1993 -0.4449 0.8731
vn -0.1993 0.4449 0.8731
vn -0.0357 0.9871 0.1563
vn -0.1593 -0.6981 0.6981
vn -0.2199 0.1526 0.9635
vn -0.6162 0.1526 0.7727
vn -0.2888 0.8863 0.3621
vn -0.2888 -0.8863 0.3621
vn -0.6162 -0.1526 0.7727
vn -0.4464 0.6981 0.5598
vn -0.1000 -0.9871 0.1254
vn -0.5584 -0.4449 0.7002
vn -0.5584 0.4449 0.7002
vn -0.1000 0.9871 0.1254
vn -0.4464 -0.6981 0.5598
vn -0.1445 0.9871 0.0696
vn -0.6451 -0.6981 0.3107
vn -0.8904 0.1526 0.4288
vn -0.4173 0.8863 0.2010
vn -0.4173 -0.8863 0.2010
vn -0.8904 -0.1526 0.4288
vn -0.6451 0.6981 0.3107
vn -0.1445 -0.9871 0.0696
vn -0.8069 -0.4449 0.3886
vn -0.8069 0.4449 0.3886
vn -0.8956 -0.4449 -0.0000
vn -0.8956 0.4449 -0.0000
vn -0.1604 0.9871 0.0000
vn -0.7160 -0.6981 0.0000
vn -0.9883 0.1526 -0.0000
vn -0.4632 0.8863 -0.0000
vn -0.4632 -0.8863 -0.0000
vn -0.9883 -0.1526 -0.0000
vn -0.7160 0.6981 0.0000
vn -0.1604 -0.9871 -0.0000
vn -0.6451 0.6981 -0.3107
vn -0.1445 -0.9871 -0.0696
vn -0.8069 -0.4449 -0.3886
vn -0.8069 0.4449 -0.3886
vn -0.1445 0.9871 -0.0696
vn -0.6451 -0.6981 -0.3107
vn -0.8904 0.1526 -0.4288
vn -0.4173 0.8863 -0.2010
vn -0.4173 -0.8863 -0.2010
vn -0.8904 -0.1526 -0.4288
vn -0.6162 -0.1526 -0.7727
vn -0.4464 0.6981 -0.5598
vn -0.1000 -0.9871 -0.1254
vn -0.5584 -0.4449 -0.7002
vn -0.5584 0.4449 -0.7002
vn -0.1000 0.9871 -0.1254
vn -0.4464 -0.6981 -0.5598
vn -0.6162 0.1526 -0.7727
vn -0.2888 0.8863 -0.3621
vn -0.2888 -0.8863 -0.3621
vn -0.1031 0.8863 -0.4516
vn -0.1031 -0.8863 -0.4516
vn -0.2199 -0.1526 -0.9635
vn -0.1593 0.6981 -0.6981
vn -0.0357 -0.9871 -0.1563
vn -0.1993 -0.4449 -0.8731
vn -0.1993 0.4449 -0.8731
vn -0.0357 0.9871 -0.1563
vn -0.1593 -0.6981 -0.6981
vn -0.2199 0.1526 -0.9635
usemtl None
s off
f 127/1/1 126/2/1 7/3/1 8/4/1
f 6/5/2 5/6/2 14/7/2 15/8/2
f 3/9/3 128/10/3 11/11/3 12/12/3
f 1/13/4 127/1/4 8/4/4 9/14/4
f 70/15/5 6/5/5 15/8/5
f 4/16/6 3/9/6 12/12/6 13/17/6
f 2/18/7 1/13/7 9/14/7 10/19/7
f 126/2/8 71/20/8 7/3/8
f 5/6/9 4/16/9 13/17/9 14/7/9
f 128/10/10 2/18/10 10/19/10 11/11/10
f 15/8/11 14/7/11 23/21/11 24/22/11
f 12/12/12 11/11/12 20/23/12 21/24/12
f 9/14/13 8/4/13 17/25/13 18/26/13
f 70/27/14 15/8/14 24/22/14
f 13/17/15 12/12/15 21/24/15 22/28/15
f 10/19/16 9/14/16 18/26/16 19/29/16
f 7/3/17 71/30/17 16/31/17
f 14/7/18 13/17/18 22/28/18 23/21/18
f 11/11/19 10/19/19 19/29/19 20/23/19
f 8/4/20 7/3/20 16/31/20 17/25/20
f 20/23/21 19/29/21 28/32/21 29/33/21
f 17/25/22 16/31/22 25/34/22 26/35/22
f 24/22/23 23/21/23 32/36/23 33/37/23
f 21/24/24 20/23/24 29/33/24 30/38/24
f 18/26/25 17/25/25 26/35/25 27/39/25
f 70/40/26 24/22/26 33/37/26
f 22/28/27 21/24/27 30/38/27 31/41/27
f 19/29/28 18/26/28 27/39/28 28/32/28
f 16/31/29 71/42/29 25/34/29
f 23/21/30 22/28/30 31/41/30 32/36/30
f 25/34/31 71/43/31 34/44/31
f 32/36/32 31/41/32 40/45/32 41/46/32
f 29/33/33 28/32/33 37/47/33 38/48/33
f 26/35/34 25/34/34 34/44/34 35/49/34
f 33/37/35 32/36/35 41/46/35 42/50/35
f 30/38/36 29/33/36 38/48/36 39/51/36
f 27/39/37 26/35/37 35/49/37 36/52/37
f 70/53/38 33/37/38 42/50/38
f 31/41/39 30/38/39 39/51/39 40/45/39
f 28/32/40 27/39/40 36/52/40 37/47/40
f 37/47/41 36/52/41 45/54/41 46/55/41
f 34/44/42 71/56/42 43/57/42
f 41/46/43 40/45/43 49/58/43 50/59/43
f 38/48/44 37/47/44 46/55/44 47/60/44
f 35/49/45 34/44/45 43/57/45 44/61/45
f 42/50/46 41/46/46 50/59/46 51/62/46
f 39/51/47 38/48/47 47/60/47 48/63/47
f 36/52/48 35/49/48 44/61/48 45/54/48
f 70/64/49 42/50/49 51/62/49
f 40/45/50 39/51/50 48/63/50 49/58/50
f 70/65/51 51/62/51 60/66/51
f 49/58/52 48/63/52 57/67/52 58/68/52
f 46/55/53 45/54/53 54/69/53 55/70/53
f 43/57/54 71/71/54 52/72/54
f 50/59/55 49/58/55 58/68/55 59/73/55
f 47/60/56 46/55/56 55/70/56 56/74/56
f 44/61/57 43/57/57 52/72/57 53/75/57
f 51/62/58 50/59/58 59/73/58 60/66/58
f 48/63/59 47/60/59 56/74/59 57/67/59
f 45/54/60 44/61/60 53/75/60 54/69/60
f 57/67/61 56/74/61 65/76/61 66/77/61
f 54/69/62 53/75/62 62/78/62 63/79/62
f 70/80/63 60/66/63 69/81/63
f 58/68/64 57/67/64 66/77/64 67/82/64
f 55/70/65 54/69/65 63/79/65 64/83/65
f 52/72/66 71/84/66 61/85/66
f 59/73/67 58/68/67 67/82/67 68/86/67
f 56/74/68 55/70/68 64/83/68 65/76/68
f 53/75/69 52/72/69 61/85/69 62/78/69
f 60/66/70 59/73/70 68/86/70 69/81/70
f 62/78/71 61/85/71 72/87/71 73/88/71
f 69/81/72 68/86/72 79/89/72 80/90/72
f 66/77/73 65/76/73 76/91/73 77/92/73
f 63/79/74 62/78/74 73/88/74 74/93/74
f 70/94/75 69/81/75 80/90/75
f 67/82/76 66/77/76 77/92/76 78/95/76
f 64/83/77 63/79/77 74/93/77 75/96/77
f 61/85/78 71/97/78 72/87/78
f 68/86/79 67/82/79 78/95/79 79/89/79
f 65/76/80 64/83/80 75/96/80 76/91/80
f 76/91/81 75/96/81 84/98/81 85/99/81
f 73/88/82 72/87/82 81/100/82 82/101/82
f 80/90/83 79/89/83 88/102/83 89/103/83
f 77/92/84 76/91/84 85/99/84 86/104/84
f 74/93/85 73/88/85 82/101/85 83/105/85
f 70/106/86 80/90/86 89/103/86
f 78/95/87 77/92/87 86/104/87 87/107/87
f 75/96/88 74/93/88 83/105/88 84/98/88
f 72/87/89 71/108/89 81/100/89
f 79/89/90 78/95/90 87/107/90 88/102/90
f 81/100/91 71/109/91 90/110/91
f 88/102/92 87/107/92 96/111/92 97/112/92
f 85/99/93 84/98/93 93/113/93 94/114/93
f 82/101/94 81/100/94 90/110/94 91/115/94
f 89/103/95 88/102/95 97/112/95 98/116/95
f 86/104/96 85/99/96 94/114/96 95/117/96
f 83/105/97 82/101/97 91/115/97 92/118/97
f 70/119/98 89/103/98 98/116/98
f 87/107/99 86/104/99 95/117/99 96/111/99
f 84/98/100 83/105/100 92/118/100 93/113/100
f 96/120/101 95/121/101 104/122/101 105/123/101
f 93/124/102 92/125/102 101/126/102 102/127/102
f 90/128/103 71/129/103 99/130/103
f 97/131/104 96/120/104 105/123/104 106/132/104
f 94/133/105 93/124/105 102/127/105 103/134/105
f 91/135/106 90/128/106 99/130/106 100/136/106
f 98/137/107 97/131/107 106/132/107 107/138/107
f 95/121/108 94/133/108 103/134/108 104/122/108
f 92/125/109 91/135/109 100/136/109 101/126/109
f 70/139/110 98/137/110 107/138/110
f 101/126/111 100/136/111 109/140/111 110/141/111
f 70/142/112 107/138/112 116/143/112
f 105/123/113 104/122/113 113/144/113 114/145/113
f 102/127/114 101/126/114 110/141/114 111/146/114
f 99/130/115 71/147/115 108/148/115
f 106/132/116 105/123/116 114/145/116 115/149/116
f 103/134/117 102/127/117 111/146/117 112/150/117
f 100/136/118 99/130/118 108/148/118 109/140/118
f 107/138/119 106/132/119 115/149/119 116/143/119
f 104/122/120 103/134/120 112/150/120 113/144/120
f 113/144/121 112/150/121 121/151/121 122/152/121
f 110/141/122 109/140/122 118/153/122 119/154/122
f 70/155/123 116/143/123 125/156/123
f 114/145/124 113/144/124 122/152/124 123/157/124
f 111/146/125 110/141/125 119/154/125 120/158/125
f 108/148/126 71/159/126 117/160/126
f 115/149/127 114/145/127 123/157/127 124/161/127
f 112/150/128 111/146/128 120/158/128 121/151/128
f 109/140/129 108/148/129 117/160/129 118/153/129
f 116/143/130 115/149/130 124/161/130 125/156/130
f 118/153/131 117/160/131 126/2/131 127/1/131
f 125/156/132 124/161/132 5/6/132 6/5/132
f 122/152/133 121/151/133 128/10/133 3/9/133
f 119/154/134 118/153/134 127/1/134 1/13/134
f 70/162/135 125/156/135 6/5/135
f 123/157/136 122/152/136 3/9/136 4/16/136
f 120/158/137 119/154/137 1/13/137 2/18/137
f 117/160/138 71/163/138 126/2/138
f 124/161/139 123/157/139 4/16/139 5/6/139
f 121/151/140 120/158/140 2/18/140 128/10/140
