# Blender v2.79 (sub 0) OBJ File: 'furniture_shelf_01.blend'
# www.blender.org
mtllib furniture_shelf_01.mtl
o Cube_(2)
v -1.850000 -0.250000 -1.000000
v -1.850000 -0.250000 -0.000000
v -1.850000 -0.750000 -0.000000
v -1.650000 -0.750000 -0.000000
v -1.650000 -0.250000 -0.000000
v -1.650000 -0.250000 -1.000000
v 1.650000 -0.250000 -1.000000
v 1.650000 -0.250000 -0.000000
v 1.650000 -0.750000 -0.000000
v 1.850000 -0.750000 -0.000000
v 1.850000 -0.250000 -0.000000
v 1.850000 -0.250000 -1.000000
v 2.500000 0.000000 -1.000000
v 2.500000 0.000000 0.000000
v -2.500000 0.000000 -1.000000
v 2.500000 -0.250000 -1.000000
v -2.500000 -0.250000 -0.000000
v -2.500000 -0.250000 -1.000000
v -2.500000 0.000000 0.000000
v 2.500000 -0.250000 -0.000000
vt 0.000000 0.000000
vt 1.000000 0.000000
vt 0.000000 1.000000
vt 1.000000 1.000000
vt 0.000000 1.000000
vt 1.000000 1.000000
vt 1.000000 1.000000
vt 0.000000 1.000000
vt 1.000000 0.000000
vt 1.000000 1.000000
vt 0.000000 0.000000
vt 0.000000 1.000000
vt 0.000000 0.000000
vt 1.000000 1.000000
vt 0.000000 1.000000
vt 1.000000 0.000000
vt 0.000000 0.000000
vt 1.000000 1.000000
vt 0.000000 1.000000
vt 1.000000 0.000000
vt 0.000000 0.000000
vt 1.000000 1.000000
vt 0.000000 1.000000
vt 1.000000 0.000000
vt 0.000000 0.000000
vt 0.000000 1.000000
vt 1.000000 1.000000
vt 1.000000 0.000000
vn 0.7071 -0.6324 -0.3163
vn -0.7071 -0.6324 -0.3162
vn -0.7071 -0.6325 -0.3161
vn 0.7071 -0.6325 -0.3162
vn 1.0000 0.0000 0.0000
vn -1.0000 0.0000 0.0000
vn 0.4083 -0.4082 -0.8165
vn -0.4082 0.4083 -0.8165
vn 0.6667 0.6667 -0.3333
vn -0.6667 -0.6667 -0.3333
vn -0.7071 0.7071 0.0000
vn 0.7071 0.7071 0.0000
vn 0.7071 -0.7071 -0.0000
vn -0.7071 -0.7071 -0.0000
usemtl Material
s 1
f 4/1/1 3/2/2 1/3/3 6/4/4
f 4/1/1 6/4/4 5/5/5
f 2/6/6 1/3/3 3/2/2
f 8/7/6 7/8/3 9/9/2
f 7/8/3 12/10/4 10/11/1 9/9/2
f 10/11/1 12/10/4 11/12/5
f 16/13/7 15/14/8 13/15/9
f 16/13/7 18/16/10 15/14/8
f 13/17/9 19/18/11 14/19/12
f 13/17/9 15/20/8 19/18/11
f 20/21/13 18/22/10 16/23/7
f 20/21/13 17/24/14 18/22/10
f 18/25/10 19/18/11 15/26/8
f 18/25/10 17/24/14 19/18/11
f 20/21/13 13/27/9 14/19/12
f 20/21/13 16/28/7 13/27/9
